<mxfile host="www.draw.io" modified="2020-04-20T09:08:40.161Z" agent="5.0 (Windows NT 10.0; Win64; x64) AppleWebKit/537.36 (KHTML, like Gecko) Chrome/80.0.3987.163 Safari/537.36" etag="UUv7yfaaY5IdAFxHXslZ" version="12.9.14" type="github">
  <diagram id="b7eLqLj3EvKyhnpj8nZf" name="Page-1">
    <mxGraphModel dx="2915" dy="1593" grid="1" gridSize="10" guides="1" tooltips="1" connect="1" arrows="1" fold="1" page="1" pageScale="1" pageWidth="850" pageHeight="1100" math="0" shadow="0">
      <root>
        <mxCell id="0" />
        <mxCell id="1" parent="0" />
        <mxCell id="1DGMJrVgc7je8S7qsRIU-1" value="" style="rounded=0;whiteSpace=wrap;html=1;fontSize=19;" parent="1" vertex="1">
          <mxGeometry x="560" y="280" width="120" height="60" as="geometry" />
        </mxCell>
        <mxCell id="1DGMJrVgc7je8S7qsRIU-2" value="" style="rounded=0;whiteSpace=wrap;html=1;fontSize=19;" parent="1" vertex="1">
          <mxGeometry x="400" y="280" width="120" height="60" as="geometry" />
        </mxCell>
        <mxCell id="1DGMJrVgc7je8S7qsRIU-3" value="" style="rounded=0;whiteSpace=wrap;html=1;fontSize=19;" parent="1" vertex="1">
          <mxGeometry x="240" y="280" width="120" height="60" as="geometry" />
        </mxCell>
        <mxCell id="1DGMJrVgc7je8S7qsRIU-4" value="" style="endArrow=none;dashed=1;html=1;" parent="1" edge="1">
          <mxGeometry width="50" height="50" relative="1" as="geometry">
            <mxPoint x="200" y="880" as="sourcePoint" />
            <mxPoint x="200" y="200" as="targetPoint" />
          </mxGeometry>
        </mxCell>
        <mxCell id="1DGMJrVgc7je8S7qsRIU-8" value="" style="rounded=0;whiteSpace=wrap;html=1;fontSize=19;" parent="1" vertex="1">
          <mxGeometry x="40" y="280" width="120" height="60" as="geometry" />
        </mxCell>
        <mxCell id="1DGMJrVgc7je8S7qsRIU-9" value="" style="rounded=0;whiteSpace=wrap;html=1;fontSize=19;" parent="1" vertex="1">
          <mxGeometry x="-120" y="280" width="120" height="60" as="geometry" />
        </mxCell>
        <mxCell id="1DGMJrVgc7je8S7qsRIU-10" value="" style="rounded=0;whiteSpace=wrap;html=1;fontSize=19;" parent="1" vertex="1">
          <mxGeometry x="-280" y="280" width="120" height="60" as="geometry" />
        </mxCell>
        <mxCell id="1DGMJrVgc7je8S7qsRIU-11" value="" style="endArrow=none;dashed=1;html=1;" parent="1" edge="1">
          <mxGeometry width="50" height="50" relative="1" as="geometry">
            <mxPoint x="-320" y="880" as="sourcePoint" />
            <mxPoint x="-320" y="200" as="targetPoint" />
          </mxGeometry>
        </mxCell>
        <mxCell id="1DGMJrVgc7je8S7qsRIU-12" value="" style="rounded=0;whiteSpace=wrap;html=1;fontSize=19;" parent="1" vertex="1">
          <mxGeometry x="-480" y="280" width="120" height="60" as="geometry" />
        </mxCell>
        <mxCell id="1DGMJrVgc7je8S7qsRIU-13" value="" style="rounded=0;whiteSpace=wrap;html=1;fontSize=19;" parent="1" vertex="1">
          <mxGeometry x="-640" y="280" width="120" height="60" as="geometry" />
        </mxCell>
        <mxCell id="1DGMJrVgc7je8S7qsRIU-14" value="" style="rounded=0;whiteSpace=wrap;html=1;fontSize=19;" parent="1" vertex="1">
          <mxGeometry x="-800" y="280" width="120" height="60" as="geometry" />
        </mxCell>
        <mxCell id="1DGMJrVgc7je8S7qsRIU-15" value="" style="endArrow=none;html=1;exitX=0.75;exitY=0;exitDx=0;exitDy=0;" parent="1" edge="1">
          <mxGeometry width="50" height="50" relative="1" as="geometry">
            <mxPoint x="-1419.46" y="-669.9999999999998" as="sourcePoint" />
            <mxPoint x="-1419.46" y="-710" as="targetPoint" />
          </mxGeometry>
        </mxCell>
        <mxCell id="1DGMJrVgc7je8S7qsRIU-16" value="" style="endArrow=none;html=1;exitX=0.75;exitY=0;exitDx=0;exitDy=0;" parent="1" edge="1">
          <mxGeometry width="50" height="50" relative="1" as="geometry">
            <mxPoint x="-1449.7" y="-670" as="sourcePoint" />
            <mxPoint x="-1449.7" y="-710" as="targetPoint" />
          </mxGeometry>
        </mxCell>
        <mxCell id="1DGMJrVgc7je8S7qsRIU-17" value="" style="endArrow=none;html=1;exitX=0.75;exitY=0;exitDx=0;exitDy=0;" parent="1" edge="1">
          <mxGeometry width="50" height="50" relative="1" as="geometry">
            <mxPoint x="-1479.4599999999998" y="-670" as="sourcePoint" />
            <mxPoint x="-1479.4599999999998" y="-710" as="targetPoint" />
          </mxGeometry>
        </mxCell>
        <mxCell id="1DGMJrVgc7je8S7qsRIU-18" value="" style="endArrow=none;html=1;exitX=0.75;exitY=0;exitDx=0;exitDy=0;" parent="1" edge="1">
          <mxGeometry width="50" height="50" relative="1" as="geometry">
            <mxPoint x="-1579.7" y="-670" as="sourcePoint" />
            <mxPoint x="-1579.7" y="-710" as="targetPoint" />
          </mxGeometry>
        </mxCell>
        <mxCell id="1DGMJrVgc7je8S7qsRIU-19" value="" style="endArrow=none;html=1;exitX=0.75;exitY=0;exitDx=0;exitDy=0;" parent="1" edge="1">
          <mxGeometry width="50" height="50" relative="1" as="geometry">
            <mxPoint x="-1609.9399999999998" y="-670" as="sourcePoint" />
            <mxPoint x="-1609.9399999999998" y="-710" as="targetPoint" />
          </mxGeometry>
        </mxCell>
        <mxCell id="1DGMJrVgc7je8S7qsRIU-20" value="" style="endArrow=none;html=1;exitX=0.75;exitY=0;exitDx=0;exitDy=0;" parent="1" edge="1">
          <mxGeometry width="50" height="50" relative="1" as="geometry">
            <mxPoint x="-1639.7" y="-670" as="sourcePoint" />
            <mxPoint x="-1639.7" y="-710" as="targetPoint" />
          </mxGeometry>
        </mxCell>
        <mxCell id="1DGMJrVgc7je8S7qsRIU-21" value="" style="endArrow=none;html=1;exitX=0.75;exitY=0;exitDx=0;exitDy=0;" parent="1" edge="1">
          <mxGeometry width="50" height="50" relative="1" as="geometry">
            <mxPoint x="-1739.7000000000003" y="-670" as="sourcePoint" />
            <mxPoint x="-1739.7000000000003" y="-710" as="targetPoint" />
          </mxGeometry>
        </mxCell>
        <mxCell id="1DGMJrVgc7je8S7qsRIU-22" value="" style="endArrow=none;html=1;exitX=0.75;exitY=0;exitDx=0;exitDy=0;" parent="1" edge="1">
          <mxGeometry width="50" height="50" relative="1" as="geometry">
            <mxPoint x="-1769.9399999999996" y="-670" as="sourcePoint" />
            <mxPoint x="-1769.9399999999996" y="-710" as="targetPoint" />
          </mxGeometry>
        </mxCell>
        <mxCell id="1DGMJrVgc7je8S7qsRIU-23" value="" style="endArrow=none;html=1;exitX=0.75;exitY=0;exitDx=0;exitDy=0;" parent="1" edge="1">
          <mxGeometry width="50" height="50" relative="1" as="geometry">
            <mxPoint x="-1799.7000000000003" y="-670" as="sourcePoint" />
            <mxPoint x="-1799.7000000000003" y="-710" as="targetPoint" />
          </mxGeometry>
        </mxCell>
        <mxCell id="1DGMJrVgc7je8S7qsRIU-24" value="" style="endArrow=none;html=1;exitX=0.75;exitY=0;exitDx=0;exitDy=0;" parent="1" edge="1">
          <mxGeometry width="50" height="50" relative="1" as="geometry">
            <mxPoint x="-1904.76" y="-670.0000000000001" as="sourcePoint" />
            <mxPoint x="-1904.76" y="-710" as="targetPoint" />
          </mxGeometry>
        </mxCell>
        <mxCell id="1DGMJrVgc7je8S7qsRIU-25" value="" style="endArrow=none;html=1;exitX=0.75;exitY=0;exitDx=0;exitDy=0;" parent="1" edge="1">
          <mxGeometry width="50" height="50" relative="1" as="geometry">
            <mxPoint x="-1934.9999999999998" y="-670.0000000000001" as="sourcePoint" />
            <mxPoint x="-1934.9999999999998" y="-710" as="targetPoint" />
          </mxGeometry>
        </mxCell>
        <mxCell id="1DGMJrVgc7je8S7qsRIU-26" value="" style="endArrow=none;html=1;exitX=0.75;exitY=0;exitDx=0;exitDy=0;" parent="1" edge="1">
          <mxGeometry width="50" height="50" relative="1" as="geometry">
            <mxPoint x="-1964.76" y="-670.0000000000001" as="sourcePoint" />
            <mxPoint x="-1964.76" y="-710" as="targetPoint" />
          </mxGeometry>
        </mxCell>
        <mxCell id="1DGMJrVgc7je8S7qsRIU-27" value="" style="endArrow=none;html=1;exitX=0.75;exitY=0;exitDx=0;exitDy=0;" parent="1" edge="1">
          <mxGeometry width="50" height="50" relative="1" as="geometry">
            <mxPoint x="-2065" y="-670.0000000000001" as="sourcePoint" />
            <mxPoint x="-2065" y="-710" as="targetPoint" />
          </mxGeometry>
        </mxCell>
        <mxCell id="1DGMJrVgc7je8S7qsRIU-28" value="" style="endArrow=none;html=1;exitX=0.75;exitY=0;exitDx=0;exitDy=0;" parent="1" edge="1">
          <mxGeometry width="50" height="50" relative="1" as="geometry">
            <mxPoint x="-2095.24" y="-670.0000000000001" as="sourcePoint" />
            <mxPoint x="-2095.24" y="-710" as="targetPoint" />
          </mxGeometry>
        </mxCell>
        <mxCell id="1DGMJrVgc7je8S7qsRIU-29" value="" style="endArrow=none;html=1;exitX=0.75;exitY=0;exitDx=0;exitDy=0;" parent="1" edge="1">
          <mxGeometry width="50" height="50" relative="1" as="geometry">
            <mxPoint x="-2125" y="-670.0000000000001" as="sourcePoint" />
            <mxPoint x="-2125" y="-710" as="targetPoint" />
          </mxGeometry>
        </mxCell>
        <mxCell id="1DGMJrVgc7je8S7qsRIU-30" value="" style="endArrow=none;html=1;exitX=0.75;exitY=0;exitDx=0;exitDy=0;" parent="1" edge="1">
          <mxGeometry width="50" height="50" relative="1" as="geometry">
            <mxPoint x="-190.5400000000002" y="279.9999999999999" as="sourcePoint" />
            <mxPoint x="-190.5400000000002" y="240" as="targetPoint" />
          </mxGeometry>
        </mxCell>
        <mxCell id="1DGMJrVgc7je8S7qsRIU-31" value="" style="endArrow=none;html=1;exitX=0.75;exitY=0;exitDx=0;exitDy=0;" parent="1" edge="1">
          <mxGeometry width="50" height="50" relative="1" as="geometry">
            <mxPoint x="-220.77999999999952" y="279.9999999999999" as="sourcePoint" />
            <mxPoint x="-220.77999999999952" y="240" as="targetPoint" />
          </mxGeometry>
        </mxCell>
        <mxCell id="1DGMJrVgc7je8S7qsRIU-32" value="" style="endArrow=none;html=1;exitX=0.75;exitY=0;exitDx=0;exitDy=0;" parent="1" edge="1">
          <mxGeometry width="50" height="50" relative="1" as="geometry">
            <mxPoint x="-250.5400000000002" y="279.9999999999999" as="sourcePoint" />
            <mxPoint x="-250.5400000000002" y="240" as="targetPoint" />
          </mxGeometry>
        </mxCell>
        <mxCell id="1DGMJrVgc7je8S7qsRIU-33" value="" style="endArrow=none;html=1;exitX=0.75;exitY=0;exitDx=0;exitDy=0;" parent="1" edge="1">
          <mxGeometry width="50" height="50" relative="1" as="geometry">
            <mxPoint x="-390.3000000000002" y="279.9999999999999" as="sourcePoint" />
            <mxPoint x="-390.3000000000002" y="240" as="targetPoint" />
          </mxGeometry>
        </mxCell>
        <mxCell id="1DGMJrVgc7je8S7qsRIU-34" value="" style="endArrow=none;html=1;exitX=0.75;exitY=0;exitDx=0;exitDy=0;" parent="1" edge="1">
          <mxGeometry width="50" height="50" relative="1" as="geometry">
            <mxPoint x="-420.53999999999996" y="279.9999999999999" as="sourcePoint" />
            <mxPoint x="-420.53999999999996" y="240" as="targetPoint" />
          </mxGeometry>
        </mxCell>
        <mxCell id="1DGMJrVgc7je8S7qsRIU-35" value="" style="endArrow=none;html=1;exitX=0.75;exitY=0;exitDx=0;exitDy=0;" parent="1" edge="1">
          <mxGeometry width="50" height="50" relative="1" as="geometry">
            <mxPoint x="-450.3000000000002" y="279.9999999999999" as="sourcePoint" />
            <mxPoint x="-450.3000000000002" y="240" as="targetPoint" />
          </mxGeometry>
        </mxCell>
        <mxCell id="1DGMJrVgc7je8S7qsRIU-36" value="" style="endArrow=none;html=1;exitX=0.75;exitY=0;exitDx=0;exitDy=0;" parent="1" edge="1">
          <mxGeometry width="50" height="50" relative="1" as="geometry">
            <mxPoint x="-550.5399999999997" y="279.9999999999999" as="sourcePoint" />
            <mxPoint x="-550.5399999999997" y="240" as="targetPoint" />
          </mxGeometry>
        </mxCell>
        <mxCell id="1DGMJrVgc7je8S7qsRIU-37" value="" style="endArrow=none;html=1;exitX=0.75;exitY=0;exitDx=0;exitDy=0;" parent="1" edge="1">
          <mxGeometry width="50" height="50" relative="1" as="geometry">
            <mxPoint x="-580.7799999999997" y="279.9999999999999" as="sourcePoint" />
            <mxPoint x="-580.7799999999997" y="240" as="targetPoint" />
          </mxGeometry>
        </mxCell>
        <mxCell id="1DGMJrVgc7je8S7qsRIU-38" value="" style="endArrow=none;html=1;exitX=0.75;exitY=0;exitDx=0;exitDy=0;" parent="1" edge="1">
          <mxGeometry width="50" height="50" relative="1" as="geometry">
            <mxPoint x="-610.5399999999997" y="279.9999999999999" as="sourcePoint" />
            <mxPoint x="-610.5399999999997" y="240" as="targetPoint" />
          </mxGeometry>
        </mxCell>
        <mxCell id="1DGMJrVgc7je8S7qsRIU-39" value="" style="endArrow=none;html=1;exitX=0.75;exitY=0;exitDx=0;exitDy=0;" parent="1" edge="1">
          <mxGeometry width="50" height="50" relative="1" as="geometry">
            <mxPoint x="-710.54" y="279.9999999999999" as="sourcePoint" />
            <mxPoint x="-710.54" y="240" as="targetPoint" />
          </mxGeometry>
        </mxCell>
        <mxCell id="1DGMJrVgc7je8S7qsRIU-40" value="" style="endArrow=none;html=1;exitX=0.75;exitY=0;exitDx=0;exitDy=0;" parent="1" edge="1">
          <mxGeometry width="50" height="50" relative="1" as="geometry">
            <mxPoint x="-740.7799999999997" y="279.9999999999999" as="sourcePoint" />
            <mxPoint x="-740.7799999999997" y="240" as="targetPoint" />
          </mxGeometry>
        </mxCell>
        <mxCell id="1DGMJrVgc7je8S7qsRIU-41" value="" style="endArrow=none;html=1;exitX=0.75;exitY=0;exitDx=0;exitDy=0;" parent="1" edge="1">
          <mxGeometry width="50" height="50" relative="1" as="geometry">
            <mxPoint x="-770.54" y="279.9999999999999" as="sourcePoint" />
            <mxPoint x="-770.54" y="240" as="targetPoint" />
          </mxGeometry>
        </mxCell>
        <mxCell id="1DGMJrVgc7je8S7qsRIU-42" value="" style="rounded=0;whiteSpace=wrap;html=1;" parent="1" vertex="1">
          <mxGeometry x="40" y="620" width="120" height="60" as="geometry" />
        </mxCell>
        <mxCell id="1DGMJrVgc7je8S7qsRIU-43" value="" style="rounded=0;whiteSpace=wrap;html=1;" parent="1" vertex="1">
          <mxGeometry x="-40" y="480" width="120" height="60" as="geometry" />
        </mxCell>
        <mxCell id="1DGMJrVgc7je8S7qsRIU-44" value="" style="rounded=0;whiteSpace=wrap;html=1;" parent="1" vertex="1">
          <mxGeometry x="-280" y="480" width="120" height="60" as="geometry" />
        </mxCell>
        <mxCell id="1DGMJrVgc7je8S7qsRIU-45" value="" style="endArrow=none;html=1;entryX=0.75;entryY=1;entryDx=0;entryDy=0;exitX=0.75;exitY=0;exitDx=0;exitDy=0;comic=0;shadow=0;strokeColor=#000000;" parent="1" source="1DGMJrVgc7je8S7qsRIU-44" target="1DGMJrVgc7je8S7qsRIU-8" edge="1">
          <mxGeometry width="50" height="50" relative="1" as="geometry">
            <mxPoint x="90" y="410" as="sourcePoint" />
            <mxPoint x="140" y="360" as="targetPoint" />
            <Array as="points">
              <mxPoint x="-190" y="450" />
              <mxPoint x="130" y="360" />
            </Array>
          </mxGeometry>
        </mxCell>
        <mxCell id="1DGMJrVgc7je8S7qsRIU-46" value="" style="endArrow=none;html=1;entryX=0.75;entryY=1;entryDx=0;entryDy=0;exitX=0.5;exitY=0;exitDx=0;exitDy=0;comic=0;shadow=0;strokeColor=#000000;" parent="1" source="1DGMJrVgc7je8S7qsRIU-44" target="1DGMJrVgc7je8S7qsRIU-9" edge="1">
          <mxGeometry width="50" height="50" relative="1" as="geometry">
            <mxPoint x="-120" y="420" as="sourcePoint" />
            <mxPoint x="-70" y="370" as="targetPoint" />
            <Array as="points">
              <mxPoint x="-220" y="450" />
              <mxPoint x="-30" y="360" />
            </Array>
          </mxGeometry>
        </mxCell>
        <mxCell id="1DGMJrVgc7je8S7qsRIU-47" value="" style="endArrow=none;html=1;entryX=0.75;entryY=1;entryDx=0;entryDy=0;exitX=0.25;exitY=0;exitDx=0;exitDy=0;comic=0;shadow=0;strokeColor=#000000;" parent="1" source="1DGMJrVgc7je8S7qsRIU-44" target="1DGMJrVgc7je8S7qsRIU-10" edge="1">
          <mxGeometry width="50" height="50" relative="1" as="geometry">
            <mxPoint x="-250" y="480" as="sourcePoint" />
            <mxPoint x="-200" y="430" as="targetPoint" />
            <Array as="points">
              <mxPoint x="-250" y="450" />
              <mxPoint x="-190" y="360" />
            </Array>
          </mxGeometry>
        </mxCell>
        <mxCell id="1DGMJrVgc7je8S7qsRIU-49" value="" style="endArrow=none;html=1;shadow=0;strokeColor=#000000;exitX=0.25;exitY=0;exitDx=0;exitDy=0;entryX=0.25;entryY=1;entryDx=0;entryDy=0;" parent="1" source="1DGMJrVgc7je8S7qsRIU-43" target="1DGMJrVgc7je8S7qsRIU-3" edge="1">
          <mxGeometry width="50" height="50" relative="1" as="geometry">
            <mxPoint x="340" y="510" as="sourcePoint" />
            <mxPoint x="390" y="460" as="targetPoint" />
            <Array as="points">
              <mxPoint x="-10" y="450" />
              <mxPoint x="270" y="360" />
            </Array>
          </mxGeometry>
        </mxCell>
        <mxCell id="1DGMJrVgc7je8S7qsRIU-50" value="" style="endArrow=none;html=1;shadow=0;strokeColor=#000000;entryX=0.25;entryY=1;entryDx=0;entryDy=0;exitX=0.5;exitY=0;exitDx=0;exitDy=0;" parent="1" source="1DGMJrVgc7je8S7qsRIU-43" target="1DGMJrVgc7je8S7qsRIU-2" edge="1">
          <mxGeometry width="50" height="50" relative="1" as="geometry">
            <mxPoint x="350" y="520" as="sourcePoint" />
            <mxPoint x="400" y="470" as="targetPoint" />
            <Array as="points">
              <mxPoint x="20" y="450" />
              <mxPoint x="430" y="360" />
            </Array>
          </mxGeometry>
        </mxCell>
        <mxCell id="1DGMJrVgc7je8S7qsRIU-51" value="" style="endArrow=none;html=1;shadow=0;strokeColor=#000000;entryX=0.25;entryY=1;entryDx=0;entryDy=0;exitX=0.75;exitY=0;exitDx=0;exitDy=0;" parent="1" source="1DGMJrVgc7je8S7qsRIU-43" target="1DGMJrVgc7je8S7qsRIU-1" edge="1">
          <mxGeometry width="50" height="50" relative="1" as="geometry">
            <mxPoint x="360" y="530" as="sourcePoint" />
            <mxPoint x="410" y="480" as="targetPoint" />
            <Array as="points">
              <mxPoint x="50" y="450" />
              <mxPoint x="590" y="360" />
            </Array>
          </mxGeometry>
        </mxCell>
        <mxCell id="1DGMJrVgc7je8S7qsRIU-52" value="" style="rounded=0;whiteSpace=wrap;html=1;" parent="1" vertex="1">
          <mxGeometry x="520" y="630" width="120" height="60" as="geometry" />
        </mxCell>
        <mxCell id="1DGMJrVgc7je8S7qsRIU-53" value="" style="rounded=0;whiteSpace=wrap;html=1;" parent="1" vertex="1">
          <mxGeometry x="460" y="480" width="120" height="60" as="geometry" />
        </mxCell>
        <mxCell id="1DGMJrVgc7je8S7qsRIU-54" value="" style="rounded=0;whiteSpace=wrap;html=1;" parent="1" vertex="1">
          <mxGeometry x="240" y="480" width="120" height="60" as="geometry" />
        </mxCell>
        <mxCell id="1DGMJrVgc7je8S7qsRIU-55" value="" style="endArrow=none;html=1;shadow=0;strokeColor=#000000;exitX=0.5;exitY=0;exitDx=0;exitDy=0;entryX=0.25;entryY=1;entryDx=0;entryDy=0;" parent="1" source="1DGMJrVgc7je8S7qsRIU-42" target="1DGMJrVgc7je8S7qsRIU-53" edge="1">
          <mxGeometry width="50" height="50" relative="1" as="geometry">
            <mxPoint x="370" y="600" as="sourcePoint" />
            <mxPoint x="280" y="510" as="targetPoint" />
            <Array as="points">
              <mxPoint x="100" y="590" />
              <mxPoint x="490" y="560" />
            </Array>
          </mxGeometry>
        </mxCell>
        <mxCell id="1DGMJrVgc7je8S7qsRIU-56" value="" style="endArrow=none;html=1;shadow=0;strokeColor=#000000;exitX=0.75;exitY=0;exitDx=0;exitDy=0;entryX=0.25;entryY=1;entryDx=0;entryDy=0;" parent="1" source="1DGMJrVgc7je8S7qsRIU-42" target="1DGMJrVgc7je8S7qsRIU-52" edge="1">
          <mxGeometry width="50" height="50" relative="1" as="geometry">
            <mxPoint x="360" y="660" as="sourcePoint" />
            <mxPoint x="330" y="560" as="targetPoint" />
            <Array as="points">
              <mxPoint x="130" y="600" />
              <mxPoint x="280" y="600" />
              <mxPoint x="280" y="710" />
              <mxPoint x="550" y="710" />
            </Array>
          </mxGeometry>
        </mxCell>
        <mxCell id="1DGMJrVgc7je8S7qsRIU-57" value="" style="endArrow=none;html=1;shadow=0;strokeColor=#000000;exitX=0.25;exitY=0;exitDx=0;exitDy=0;entryX=0.25;entryY=1;entryDx=0;entryDy=0;" parent="1" source="1DGMJrVgc7je8S7qsRIU-42" target="1DGMJrVgc7je8S7qsRIU-54" edge="1">
          <mxGeometry width="50" height="50" relative="1" as="geometry">
            <mxPoint x="110" y="600" as="sourcePoint" />
            <mxPoint x="240" y="490" as="targetPoint" />
            <Array as="points">
              <mxPoint x="70" y="580" />
              <mxPoint x="270" y="560" />
            </Array>
          </mxGeometry>
        </mxCell>
        <mxCell id="1DGMJrVgc7je8S7qsRIU-58" value="" style="rounded=0;whiteSpace=wrap;html=1;" parent="1" vertex="1">
          <mxGeometry x="-80" y="760" width="120" height="60" as="geometry" />
        </mxCell>
        <mxCell id="1DGMJrVgc7je8S7qsRIU-59" value="" style="endArrow=none;html=1;shadow=0;strokeColor=#000000;entryX=0.75;entryY=1;entryDx=0;entryDy=0;exitX=0.25;exitY=0;exitDx=0;exitDy=0;" parent="1" source="1DGMJrVgc7je8S7qsRIU-58" target="1DGMJrVgc7je8S7qsRIU-44" edge="1">
          <mxGeometry width="50" height="50" relative="1" as="geometry">
            <mxPoint x="-240" y="700" as="sourcePoint" />
            <mxPoint x="-190" y="650" as="targetPoint" />
            <Array as="points">
              <mxPoint x="-50" y="730" />
              <mxPoint x="-190" y="560" />
            </Array>
          </mxGeometry>
        </mxCell>
        <mxCell id="1DGMJrVgc7je8S7qsRIU-60" value="" style="endArrow=none;html=1;shadow=0;strokeColor=#000000;exitX=0.5;exitY=0;exitDx=0;exitDy=0;entryX=0.75;entryY=1;entryDx=0;entryDy=0;" parent="1" source="1DGMJrVgc7je8S7qsRIU-58" target="1DGMJrVgc7je8S7qsRIU-43" edge="1">
          <mxGeometry width="50" height="50" relative="1" as="geometry">
            <mxPoint x="-100" y="700" as="sourcePoint" />
            <mxPoint x="-50" y="650" as="targetPoint" />
            <Array as="points">
              <mxPoint x="-20" y="730" />
              <mxPoint x="50" y="570" />
            </Array>
          </mxGeometry>
        </mxCell>
        <mxCell id="1DGMJrVgc7je8S7qsRIU-61" value="" style="endArrow=none;html=1;shadow=0;strokeColor=#000000;exitX=0.75;exitY=0;exitDx=0;exitDy=0;entryX=0.75;entryY=1;entryDx=0;entryDy=0;" parent="1" source="1DGMJrVgc7je8S7qsRIU-58" target="1DGMJrVgc7je8S7qsRIU-42" edge="1">
          <mxGeometry width="50" height="50" relative="1" as="geometry">
            <mxPoint x="20" y="750" as="sourcePoint" />
            <mxPoint x="70" y="700" as="targetPoint" />
            <Array as="points">
              <mxPoint x="10" y="740" />
              <mxPoint x="130" y="700" />
            </Array>
          </mxGeometry>
        </mxCell>
        <mxCell id="1DGMJrVgc7je8S7qsRIU-62" value="" style="rounded=0;whiteSpace=wrap;html=1;" parent="1" vertex="1">
          <mxGeometry x="380" y="760" width="120" height="60" as="geometry" />
        </mxCell>
        <mxCell id="1DGMJrVgc7je8S7qsRIU-64" value="" style="endArrow=none;html=1;shadow=0;strokeColor=#000000;entryX=0.75;entryY=1;entryDx=0;entryDy=0;exitX=0.75;exitY=0;exitDx=0;exitDy=0;" parent="1" source="1DGMJrVgc7je8S7qsRIU-62" target="1DGMJrVgc7je8S7qsRIU-52" edge="1">
          <mxGeometry width="50" height="50" relative="1" as="geometry">
            <mxPoint x="530" y="770" as="sourcePoint" />
            <mxPoint x="580" y="720" as="targetPoint" />
            <Array as="points">
              <mxPoint x="470" y="740" />
              <mxPoint x="610" y="710" />
            </Array>
          </mxGeometry>
        </mxCell>
        <mxCell id="1DGMJrVgc7je8S7qsRIU-65" value="" style="endArrow=none;html=1;shadow=0;strokeColor=#000000;exitX=0.5;exitY=0;exitDx=0;exitDy=0;entryX=0.75;entryY=1;entryDx=0;entryDy=0;" parent="1" source="1DGMJrVgc7je8S7qsRIU-62" target="1DGMJrVgc7je8S7qsRIU-53" edge="1">
          <mxGeometry width="50" height="50" relative="1" as="geometry">
            <mxPoint x="430" y="740" as="sourcePoint" />
            <mxPoint x="480" y="690" as="targetPoint" />
            <Array as="points">
              <mxPoint x="440" y="710" />
              <mxPoint x="550" y="560" />
            </Array>
          </mxGeometry>
        </mxCell>
        <mxCell id="1DGMJrVgc7je8S7qsRIU-66" value="" style="endArrow=none;html=1;shadow=0;strokeColor=#000000;entryX=0.75;entryY=1;entryDx=0;entryDy=0;exitX=0.25;exitY=0;exitDx=0;exitDy=0;" parent="1" source="1DGMJrVgc7je8S7qsRIU-62" target="1DGMJrVgc7je8S7qsRIU-54" edge="1">
          <mxGeometry width="50" height="50" relative="1" as="geometry">
            <mxPoint x="270" y="720" as="sourcePoint" />
            <mxPoint x="320" y="670" as="targetPoint" />
            <Array as="points">
              <mxPoint x="410" y="730" />
              <mxPoint x="330" y="560" />
            </Array>
          </mxGeometry>
        </mxCell>
        <mxCell id="1DGMJrVgc7je8S7qsRIU-72" value="" style="endArrow=classic;html=1;shadow=0;strokeColor=#000000;exitX=0.75;exitY=1;exitDx=0;exitDy=0;" parent="1" source="1DGMJrVgc7je8S7qsRIU-62" edge="1">
          <mxGeometry width="50" height="50" relative="1" as="geometry">
            <mxPoint x="500" y="900" as="sourcePoint" />
            <mxPoint x="470" y="880" as="targetPoint" />
          </mxGeometry>
        </mxCell>
        <mxCell id="1DGMJrVgc7je8S7qsRIU-73" value="" style="endArrow=classic;html=1;shadow=0;strokeColor=#000000;exitX=0.25;exitY=1;exitDx=0;exitDy=0;" parent="1" source="1DGMJrVgc7je8S7qsRIU-62" edge="1">
          <mxGeometry width="50" height="50" relative="1" as="geometry">
            <mxPoint x="280" y="950" as="sourcePoint" />
            <mxPoint x="80" y="880" as="targetPoint" />
            <Array as="points">
              <mxPoint x="410" y="840" />
              <mxPoint x="80" y="840" />
            </Array>
          </mxGeometry>
        </mxCell>
        <mxCell id="1DGMJrVgc7je8S7qsRIU-74" value="" style="endArrow=classic;html=1;shadow=0;strokeColor=#000000;exitX=0.75;exitY=1;exitDx=0;exitDy=0;" parent="1" source="1DGMJrVgc7je8S7qsRIU-58" edge="1">
          <mxGeometry width="50" height="50" relative="1" as="geometry">
            <mxPoint x="50" y="950" as="sourcePoint" />
            <mxPoint x="10" y="880" as="targetPoint" />
          </mxGeometry>
        </mxCell>
        <mxCell id="1DGMJrVgc7je8S7qsRIU-76" value="" style="endArrow=classic;html=1;shadow=0;strokeColor=#000000;exitX=0.25;exitY=1;exitDx=0;exitDy=0;" parent="1" source="1DGMJrVgc7je8S7qsRIU-58" edge="1">
          <mxGeometry width="50" height="50" relative="1" as="geometry">
            <mxPoint x="-390" y="930" as="sourcePoint" />
            <mxPoint x="-440" y="880" as="targetPoint" />
            <Array as="points">
              <mxPoint x="-50" y="840" />
              <mxPoint x="-440" y="840" />
            </Array>
          </mxGeometry>
        </mxCell>
        <mxCell id="1DGMJrVgc7je8S7qsRIU-78" value="" style="rounded=0;whiteSpace=wrap;html=1;" parent="1" vertex="1">
          <mxGeometry x="-480" y="620" width="120" height="60" as="geometry" />
        </mxCell>
        <mxCell id="1DGMJrVgc7je8S7qsRIU-79" value="" style="rounded=0;whiteSpace=wrap;html=1;" parent="1" vertex="1">
          <mxGeometry x="-560" y="480" width="120" height="60" as="geometry" />
        </mxCell>
        <mxCell id="1DGMJrVgc7je8S7qsRIU-80" value="" style="rounded=0;whiteSpace=wrap;html=1;" parent="1" vertex="1">
          <mxGeometry x="-800" y="480" width="120" height="60" as="geometry" />
        </mxCell>
        <mxCell id="1DGMJrVgc7je8S7qsRIU-81" value="" style="rounded=0;whiteSpace=wrap;html=1;" parent="1" vertex="1">
          <mxGeometry x="-600" y="760" width="120" height="60" as="geometry" />
        </mxCell>
        <mxCell id="1DGMJrVgc7je8S7qsRIU-82" value="" style="endArrow=none;html=1;shadow=0;strokeColor=#000000;entryX=0.75;entryY=1;entryDx=0;entryDy=0;exitX=0.25;exitY=0;exitDx=0;exitDy=0;" parent="1" source="1DGMJrVgc7je8S7qsRIU-81" target="1DGMJrVgc7je8S7qsRIU-80" edge="1">
          <mxGeometry width="50" height="50" relative="1" as="geometry">
            <mxPoint x="-760" y="700" as="sourcePoint" />
            <mxPoint x="-710" y="650" as="targetPoint" />
            <Array as="points">
              <mxPoint x="-570" y="730" />
              <mxPoint x="-710" y="560" />
            </Array>
          </mxGeometry>
        </mxCell>
        <mxCell id="1DGMJrVgc7je8S7qsRIU-83" value="" style="endArrow=none;html=1;shadow=0;strokeColor=#000000;exitX=0.5;exitY=0;exitDx=0;exitDy=0;entryX=0.75;entryY=1;entryDx=0;entryDy=0;" parent="1" source="1DGMJrVgc7je8S7qsRIU-81" target="1DGMJrVgc7je8S7qsRIU-79" edge="1">
          <mxGeometry width="50" height="50" relative="1" as="geometry">
            <mxPoint x="-620" y="700" as="sourcePoint" />
            <mxPoint x="-570" y="650" as="targetPoint" />
            <Array as="points">
              <mxPoint x="-540" y="730" />
              <mxPoint x="-470" y="570" />
            </Array>
          </mxGeometry>
        </mxCell>
        <mxCell id="1DGMJrVgc7je8S7qsRIU-84" value="" style="endArrow=none;html=1;shadow=0;strokeColor=#000000;exitX=0.75;exitY=0;exitDx=0;exitDy=0;entryX=0.75;entryY=1;entryDx=0;entryDy=0;" parent="1" source="1DGMJrVgc7je8S7qsRIU-81" target="1DGMJrVgc7je8S7qsRIU-78" edge="1">
          <mxGeometry width="50" height="50" relative="1" as="geometry">
            <mxPoint x="-500" y="750" as="sourcePoint" />
            <mxPoint x="-450" y="700" as="targetPoint" />
            <Array as="points">
              <mxPoint x="-510" y="740" />
              <mxPoint x="-390" y="700" />
            </Array>
          </mxGeometry>
        </mxCell>
        <mxCell id="1DGMJrVgc7je8S7qsRIU-91" value="" style="endArrow=none;html=1;entryX=0.75;entryY=1;entryDx=0;entryDy=0;exitX=0.75;exitY=0;exitDx=0;exitDy=0;comic=0;shadow=0;strokeColor=#000000;" parent="1" edge="1">
          <mxGeometry width="50" height="50" relative="1" as="geometry">
            <mxPoint x="-710" y="480" as="sourcePoint" />
            <mxPoint x="-390" y="340" as="targetPoint" />
            <Array as="points">
              <mxPoint x="-710" y="450" />
              <mxPoint x="-390" y="360" />
            </Array>
          </mxGeometry>
        </mxCell>
        <mxCell id="1DGMJrVgc7je8S7qsRIU-92" value="" style="endArrow=none;html=1;entryX=0.75;entryY=1;entryDx=0;entryDy=0;exitX=0.5;exitY=0;exitDx=0;exitDy=0;comic=0;shadow=0;strokeColor=#000000;" parent="1" edge="1">
          <mxGeometry width="50" height="50" relative="1" as="geometry">
            <mxPoint x="-740" y="480" as="sourcePoint" />
            <mxPoint x="-550" y="340" as="targetPoint" />
            <Array as="points">
              <mxPoint x="-740" y="450" />
              <mxPoint x="-550" y="360" />
            </Array>
          </mxGeometry>
        </mxCell>
        <mxCell id="1DGMJrVgc7je8S7qsRIU-93" value="" style="endArrow=none;html=1;entryX=0.75;entryY=1;entryDx=0;entryDy=0;exitX=0.25;exitY=0;exitDx=0;exitDy=0;comic=0;shadow=0;strokeColor=#000000;" parent="1" edge="1">
          <mxGeometry width="50" height="50" relative="1" as="geometry">
            <mxPoint x="-770" y="480" as="sourcePoint" />
            <mxPoint x="-710" y="340" as="targetPoint" />
            <Array as="points">
              <mxPoint x="-770" y="450" />
              <mxPoint x="-710" y="360" />
            </Array>
          </mxGeometry>
        </mxCell>
        <mxCell id="1DGMJrVgc7je8S7qsRIU-94" value="" style="endArrow=none;html=1;shadow=0;strokeColor=#000000;exitX=0.25;exitY=0;exitDx=0;exitDy=0;entryX=0.25;entryY=1;entryDx=0;entryDy=0;" parent="1" edge="1">
          <mxGeometry width="50" height="50" relative="1" as="geometry">
            <mxPoint x="-530" y="480" as="sourcePoint" />
            <mxPoint x="-250" y="340" as="targetPoint" />
            <Array as="points">
              <mxPoint x="-530" y="450" />
              <mxPoint x="-250" y="360" />
            </Array>
          </mxGeometry>
        </mxCell>
        <mxCell id="1DGMJrVgc7je8S7qsRIU-95" value="" style="endArrow=none;html=1;shadow=0;strokeColor=#000000;entryX=0.25;entryY=1;entryDx=0;entryDy=0;exitX=0.5;exitY=0;exitDx=0;exitDy=0;" parent="1" edge="1">
          <mxGeometry width="50" height="50" relative="1" as="geometry">
            <mxPoint x="-500" y="480" as="sourcePoint" />
            <mxPoint x="-90" y="340" as="targetPoint" />
            <Array as="points">
              <mxPoint x="-500" y="450" />
              <mxPoint x="-90" y="360" />
            </Array>
          </mxGeometry>
        </mxCell>
        <mxCell id="1DGMJrVgc7je8S7qsRIU-96" value="" style="endArrow=none;html=1;shadow=0;strokeColor=#000000;entryX=0.25;entryY=1;entryDx=0;entryDy=0;exitX=0.75;exitY=0;exitDx=0;exitDy=0;" parent="1" edge="1">
          <mxGeometry width="50" height="50" relative="1" as="geometry">
            <mxPoint x="-470" y="480" as="sourcePoint" />
            <mxPoint x="70" y="340" as="targetPoint" />
            <Array as="points">
              <mxPoint x="-470" y="450" />
              <mxPoint x="70" y="360" />
            </Array>
          </mxGeometry>
        </mxCell>
        <mxCell id="1DGMJrVgc7je8S7qsRIU-97" value="" style="endArrow=none;html=1;shadow=0;strokeColor=#000000;exitX=0.5;exitY=0;exitDx=0;exitDy=0;entryX=0.25;entryY=1;entryDx=0;entryDy=0;" parent="1" edge="1">
          <mxGeometry width="50" height="50" relative="1" as="geometry">
            <mxPoint x="-420" y="620" as="sourcePoint" />
            <mxPoint x="-10" y="540" as="targetPoint" />
            <Array as="points">
              <mxPoint x="-420" y="590" />
              <mxPoint x="-10" y="560" />
            </Array>
          </mxGeometry>
        </mxCell>
        <mxCell id="1DGMJrVgc7je8S7qsRIU-98" value="" style="endArrow=none;html=1;shadow=0;strokeColor=#000000;exitX=0.75;exitY=0;exitDx=0;exitDy=0;entryX=0.25;entryY=1;entryDx=0;entryDy=0;" parent="1" target="1DGMJrVgc7je8S7qsRIU-42" edge="1">
          <mxGeometry width="50" height="50" relative="1" as="geometry">
            <mxPoint x="-390" y="620" as="sourcePoint" />
            <mxPoint x="30" y="690" as="targetPoint" />
            <Array as="points">
              <mxPoint x="-390" y="600" />
              <mxPoint x="-240" y="600" />
              <mxPoint x="-240" y="710" />
              <mxPoint x="70" y="710" />
            </Array>
          </mxGeometry>
        </mxCell>
        <mxCell id="1DGMJrVgc7je8S7qsRIU-99" value="" style="endArrow=none;html=1;shadow=0;strokeColor=#000000;exitX=0.25;exitY=0;exitDx=0;exitDy=0;entryX=0.25;entryY=1;entryDx=0;entryDy=0;" parent="1" edge="1">
          <mxGeometry width="50" height="50" relative="1" as="geometry">
            <mxPoint x="-450" y="620" as="sourcePoint" />
            <mxPoint x="-250" y="540" as="targetPoint" />
            <Array as="points">
              <mxPoint x="-450" y="580" />
              <mxPoint x="-250" y="560" />
            </Array>
          </mxGeometry>
        </mxCell>
        <mxCell id="1DGMJrVgc7je8S7qsRIU-100" value="" style="endArrow=classic;html=1;shadow=0;strokeColor=#000000;exitX=0.75;exitY=1;exitDx=0;exitDy=0;" parent="1" edge="1">
          <mxGeometry width="50" height="50" relative="1" as="geometry">
            <mxPoint x="-510" y="820" as="sourcePoint" />
            <mxPoint x="-510" y="880" as="targetPoint" />
          </mxGeometry>
        </mxCell>
        <mxCell id="1DGMJrVgc7je8S7qsRIU-101" value="" style="endArrow=none;dashed=1;html=1;" parent="1" edge="1">
          <mxGeometry width="50" height="50" relative="1" as="geometry">
            <mxPoint x="-840" y="880" as="sourcePoint" />
            <mxPoint x="-840" y="200" as="targetPoint" />
          </mxGeometry>
        </mxCell>
        <mxCell id="1DGMJrVgc7je8S7qsRIU-102" value="" style="endArrow=none;dashed=1;html=1;" parent="1" edge="1">
          <mxGeometry width="50" height="50" relative="1" as="geometry">
            <mxPoint x="720" y="880" as="sourcePoint" />
            <mxPoint x="720" y="200" as="targetPoint" />
          </mxGeometry>
        </mxCell>
        <mxCell id="1DGMJrVgc7je8S7qsRIU-103" value="" style="endArrow=none;html=1;shadow=0;strokeColor=#000000;exitX=0.5;exitY=0;exitDx=0;exitDy=0;" parent="1" source="1DGMJrVgc7je8S7qsRIU-52" edge="1">
          <mxGeometry width="50" height="50" relative="1" as="geometry">
            <mxPoint x="750" y="600" as="sourcePoint" />
            <mxPoint x="800" y="550" as="targetPoint" />
            <Array as="points">
              <mxPoint x="580" y="600" />
            </Array>
          </mxGeometry>
        </mxCell>
        <mxCell id="1DGMJrVgc7je8S7qsRIU-104" value="" style="endArrow=none;html=1;shadow=0;strokeColor=#000000;exitX=0.75;exitY=0;exitDx=0;exitDy=0;" parent="1" source="1DGMJrVgc7je8S7qsRIU-52" edge="1">
          <mxGeometry width="50" height="50" relative="1" as="geometry">
            <mxPoint x="760" y="690" as="sourcePoint" />
            <mxPoint x="800" y="580" as="targetPoint" />
            <Array as="points">
              <mxPoint x="610" y="600" />
            </Array>
          </mxGeometry>
        </mxCell>
        <mxCell id="1DGMJrVgc7je8S7qsRIU-105" value="" style="endArrow=none;html=1;shadow=0;strokeColor=#000000;exitX=0.25;exitY=0;exitDx=0;exitDy=0;" parent="1" source="1DGMJrVgc7je8S7qsRIU-52" edge="1">
          <mxGeometry width="50" height="50" relative="1" as="geometry">
            <mxPoint x="650" y="570" as="sourcePoint" />
            <mxPoint x="800" y="520" as="targetPoint" />
            <Array as="points">
              <mxPoint x="550" y="590" />
            </Array>
          </mxGeometry>
        </mxCell>
        <mxCell id="1DGMJrVgc7je8S7qsRIU-106" value="" style="endArrow=none;html=1;shadow=0;strokeColor=#000000;exitX=0.75;exitY=0;exitDx=0;exitDy=0;" parent="1" source="1DGMJrVgc7je8S7qsRIU-53" edge="1">
          <mxGeometry width="50" height="50" relative="1" as="geometry">
            <mxPoint x="640" y="480" as="sourcePoint" />
            <mxPoint x="800" y="410" as="targetPoint" />
            <Array as="points">
              <mxPoint x="550" y="460" />
            </Array>
          </mxGeometry>
        </mxCell>
        <mxCell id="1DGMJrVgc7je8S7qsRIU-107" value="" style="endArrow=none;html=1;shadow=0;strokeColor=#000000;exitX=0.5;exitY=0;exitDx=0;exitDy=0;" parent="1" source="1DGMJrVgc7je8S7qsRIU-53" edge="1">
          <mxGeometry width="50" height="50" relative="1" as="geometry">
            <mxPoint x="630" y="460" as="sourcePoint" />
            <mxPoint x="800" y="370" as="targetPoint" />
            <Array as="points">
              <mxPoint x="520" y="450" />
            </Array>
          </mxGeometry>
        </mxCell>
        <mxCell id="1DGMJrVgc7je8S7qsRIU-108" value="" style="endArrow=none;html=1;shadow=0;strokeColor=#000000;exitX=0.25;exitY=0;exitDx=0;exitDy=0;" parent="1" source="1DGMJrVgc7je8S7qsRIU-53" edge="1">
          <mxGeometry width="50" height="50" relative="1" as="geometry">
            <mxPoint x="500" y="460" as="sourcePoint" />
            <mxPoint x="781.1428571428571" y="320" as="targetPoint" />
            <Array as="points">
              <mxPoint x="490" y="450" />
            </Array>
          </mxGeometry>
        </mxCell>
        <mxCell id="1DGMJrVgc7je8S7qsRIU-109" value="" style="endArrow=none;html=1;entryX=0.75;entryY=1;entryDx=0;entryDy=0;exitX=0.75;exitY=0;exitDx=0;exitDy=0;comic=0;shadow=0;strokeColor=#000000;" parent="1" edge="1">
          <mxGeometry width="50" height="50" relative="1" as="geometry">
            <mxPoint x="330" y="480" as="sourcePoint" />
            <mxPoint x="650" y="340" as="targetPoint" />
            <Array as="points">
              <mxPoint x="330" y="450" />
              <mxPoint x="650" y="360" />
            </Array>
          </mxGeometry>
        </mxCell>
        <mxCell id="1DGMJrVgc7je8S7qsRIU-110" value="" style="endArrow=none;html=1;entryX=0.75;entryY=1;entryDx=0;entryDy=0;exitX=0.5;exitY=0;exitDx=0;exitDy=0;comic=0;shadow=0;strokeColor=#000000;" parent="1" edge="1">
          <mxGeometry width="50" height="50" relative="1" as="geometry">
            <mxPoint x="300" y="480" as="sourcePoint" />
            <mxPoint x="490" y="340" as="targetPoint" />
            <Array as="points">
              <mxPoint x="300" y="450" />
              <mxPoint x="490" y="360" />
            </Array>
          </mxGeometry>
        </mxCell>
        <mxCell id="1DGMJrVgc7je8S7qsRIU-111" value="" style="endArrow=none;html=1;entryX=0.75;entryY=1;entryDx=0;entryDy=0;exitX=0.25;exitY=0;exitDx=0;exitDy=0;comic=0;shadow=0;strokeColor=#000000;" parent="1" edge="1">
          <mxGeometry width="50" height="50" relative="1" as="geometry">
            <mxPoint x="270" y="480" as="sourcePoint" />
            <mxPoint x="330" y="340" as="targetPoint" />
            <Array as="points">
              <mxPoint x="270" y="450" />
              <mxPoint x="330" y="360" />
            </Array>
          </mxGeometry>
        </mxCell>
        <mxCell id="1DGMJrVgc7je8S7qsRIU-112" value="" style="endArrow=classic;html=1;shadow=0;strokeColor=#000000;exitX=0.25;exitY=1;exitDx=0;exitDy=0;" parent="1" edge="1">
          <mxGeometry width="50" height="50" relative="1" as="geometry">
            <mxPoint x="-570" y="820" as="sourcePoint" />
            <mxPoint x="-1000" y="880" as="targetPoint" />
            <Array as="points">
              <mxPoint x="-570" y="840" />
              <mxPoint x="-1000" y="840" />
            </Array>
          </mxGeometry>
        </mxCell>
        <mxCell id="49JvRgCJEV_ncYPP08---1" value="" style="endArrow=none;html=1;shadow=0;strokeColor=#000000;exitX=0.25;exitY=0;exitDx=0;exitDy=0;entryX=0.25;entryY=1;entryDx=0;entryDy=0;" parent="1" edge="1">
          <mxGeometry width="50" height="50" relative="1" as="geometry">
            <mxPoint x="-1050" y="480" as="sourcePoint" />
            <mxPoint x="-770" y="340" as="targetPoint" />
            <Array as="points">
              <mxPoint x="-1050" y="450" />
              <mxPoint x="-770" y="360" />
            </Array>
          </mxGeometry>
        </mxCell>
        <mxCell id="49JvRgCJEV_ncYPP08---2" value="" style="endArrow=none;html=1;shadow=0;strokeColor=#000000;entryX=0.25;entryY=1;entryDx=0;entryDy=0;exitX=0.5;exitY=0;exitDx=0;exitDy=0;" parent="1" edge="1">
          <mxGeometry width="50" height="50" relative="1" as="geometry">
            <mxPoint x="-1020" y="480" as="sourcePoint" />
            <mxPoint x="-610" y="340" as="targetPoint" />
            <Array as="points">
              <mxPoint x="-1020" y="450" />
              <mxPoint x="-610" y="360" />
            </Array>
          </mxGeometry>
        </mxCell>
        <mxCell id="49JvRgCJEV_ncYPP08---3" value="" style="endArrow=none;html=1;shadow=0;strokeColor=#000000;entryX=0.25;entryY=1;entryDx=0;entryDy=0;exitX=0.75;exitY=0;exitDx=0;exitDy=0;" parent="1" edge="1">
          <mxGeometry width="50" height="50" relative="1" as="geometry">
            <mxPoint x="-990" y="480" as="sourcePoint" />
            <mxPoint x="-450" y="340" as="targetPoint" />
            <Array as="points">
              <mxPoint x="-990" y="450" />
              <mxPoint x="-450" y="360" />
            </Array>
          </mxGeometry>
        </mxCell>
        <mxCell id="49JvRgCJEV_ncYPP08---4" value="" style="endArrow=none;html=1;shadow=0;strokeColor=#000000;exitX=0.5;exitY=0;exitDx=0;exitDy=0;entryX=0.25;entryY=1;entryDx=0;entryDy=0;" parent="1" edge="1">
          <mxGeometry width="50" height="50" relative="1" as="geometry">
            <mxPoint x="-930" y="620" as="sourcePoint" />
            <mxPoint x="-520" y="540" as="targetPoint" />
            <Array as="points">
              <mxPoint x="-930" y="590" />
              <mxPoint x="-520" y="560" />
            </Array>
          </mxGeometry>
        </mxCell>
        <mxCell id="49JvRgCJEV_ncYPP08---5" value="" style="endArrow=none;html=1;shadow=0;strokeColor=#000000;exitX=0.75;exitY=0;exitDx=0;exitDy=0;entryX=0.25;entryY=1;entryDx=0;entryDy=0;" parent="1" edge="1">
          <mxGeometry width="50" height="50" relative="1" as="geometry">
            <mxPoint x="-900" y="620" as="sourcePoint" />
            <mxPoint x="-440" y="680" as="targetPoint" />
            <Array as="points">
              <mxPoint x="-900" y="600" />
              <mxPoint x="-750" y="600" />
              <mxPoint x="-750" y="710" />
              <mxPoint x="-440" y="710" />
            </Array>
          </mxGeometry>
        </mxCell>
        <mxCell id="49JvRgCJEV_ncYPP08---6" value="" style="endArrow=none;html=1;shadow=0;strokeColor=#000000;exitX=0.25;exitY=0;exitDx=0;exitDy=0;entryX=0.25;entryY=1;entryDx=0;entryDy=0;" parent="1" edge="1">
          <mxGeometry width="50" height="50" relative="1" as="geometry">
            <mxPoint x="-960" y="620" as="sourcePoint" />
            <mxPoint x="-760" y="540" as="targetPoint" />
            <Array as="points">
              <mxPoint x="-960" y="580" />
              <mxPoint x="-760" y="560" />
            </Array>
          </mxGeometry>
        </mxCell>
        <mxCell id="49JvRgCJEV_ncYPP08---7" value="" style="endArrow=classic;html=1;shadow=0;strokeColor=#000000;exitX=0.25;exitY=1;exitDx=0;exitDy=0;" parent="1" edge="1">
          <mxGeometry width="50" height="50" relative="1" as="geometry">
            <mxPoint x="890" y="820" as="sourcePoint" />
            <mxPoint x="560" y="880" as="targetPoint" />
            <Array as="points">
              <mxPoint x="890" y="840" />
              <mxPoint x="560" y="840" />
            </Array>
          </mxGeometry>
        </mxCell>
        <mxCell id="MknB2XPxjjsTYUx9sq_i-1" value="" style="rounded=0;whiteSpace=wrap;html=1;fontSize=19;" parent="1" vertex="1">
          <mxGeometry x="-1510" y="-670" width="120" height="60" as="geometry" />
        </mxCell>
        <mxCell id="MknB2XPxjjsTYUx9sq_i-2" value="" style="rounded=0;whiteSpace=wrap;html=1;fontSize=19;" parent="1" vertex="1">
          <mxGeometry x="-1670" y="-670" width="120" height="60" as="geometry" />
        </mxCell>
        <mxCell id="MknB2XPxjjsTYUx9sq_i-3" value="" style="rounded=0;whiteSpace=wrap;html=1;fontSize=19;" parent="1" vertex="1">
          <mxGeometry x="-1830" y="-670" width="120" height="60" as="geometry" />
        </mxCell>
        <mxCell id="MknB2XPxjjsTYUx9sq_i-4" value="" style="rounded=0;whiteSpace=wrap;html=1;fontSize=19;" parent="1" vertex="1">
          <mxGeometry x="-1990" y="-670" width="120" height="60" as="geometry" />
        </mxCell>
        <mxCell id="MknB2XPxjjsTYUx9sq_i-5" value="" style="rounded=0;whiteSpace=wrap;html=1;fontSize=19;" parent="1" vertex="1">
          <mxGeometry x="-2150" y="-670" width="120" height="60" as="geometry" />
        </mxCell>
        <mxCell id="MknB2XPxjjsTYUx9sq_i-6" value="" style="rounded=0;whiteSpace=wrap;html=1;" parent="1" vertex="1">
          <mxGeometry x="-1510" y="-490" width="120" height="60" as="geometry" />
        </mxCell>
        <mxCell id="MknB2XPxjjsTYUx9sq_i-7" value="" style="endArrow=none;html=1;entryX=0.75;entryY=1;entryDx=0;entryDy=0;exitX=0.75;exitY=0;exitDx=0;exitDy=0;" parent="1" source="MknB2XPxjjsTYUx9sq_i-6" target="MknB2XPxjjsTYUx9sq_i-1" edge="1">
          <mxGeometry width="50" height="50" relative="1" as="geometry">
            <mxPoint x="-1490" y="-520" as="sourcePoint" />
            <mxPoint x="-1440" y="-570" as="targetPoint" />
          </mxGeometry>
        </mxCell>
        <mxCell id="MknB2XPxjjsTYUx9sq_i-41" value="1" style="edgeLabel;html=1;align=center;verticalAlign=middle;resizable=0;points=[];" parent="MknB2XPxjjsTYUx9sq_i-7" vertex="1" connectable="0">
          <mxGeometry x="0.1444" y="-2" relative="1" as="geometry">
            <mxPoint as="offset" />
          </mxGeometry>
        </mxCell>
        <mxCell id="MknB2XPxjjsTYUx9sq_i-8" value="" style="endArrow=none;html=1;entryX=0.75;entryY=1;entryDx=0;entryDy=0;exitX=0.5;exitY=0;exitDx=0;exitDy=0;" parent="1" source="MknB2XPxjjsTYUx9sq_i-6" target="MknB2XPxjjsTYUx9sq_i-2" edge="1">
          <mxGeometry width="50" height="50" relative="1" as="geometry">
            <mxPoint x="-1760" y="-450" as="sourcePoint" />
            <mxPoint x="-1710" y="-500" as="targetPoint" />
          </mxGeometry>
        </mxCell>
        <mxCell id="MknB2XPxjjsTYUx9sq_i-42" value="1" style="edgeLabel;html=1;align=center;verticalAlign=middle;resizable=0;points=[];" parent="MknB2XPxjjsTYUx9sq_i-8" vertex="1" connectable="0">
          <mxGeometry x="0.37" y="1" relative="1" as="geometry">
            <mxPoint x="-1" as="offset" />
          </mxGeometry>
        </mxCell>
        <mxCell id="MknB2XPxjjsTYUx9sq_i-9" value="" style="endArrow=none;html=1;entryX=0.75;entryY=1;entryDx=0;entryDy=0;exitX=0.25;exitY=0;exitDx=0;exitDy=0;" parent="1" source="MknB2XPxjjsTYUx9sq_i-6" target="MknB2XPxjjsTYUx9sq_i-3" edge="1">
          <mxGeometry width="50" height="50" relative="1" as="geometry">
            <mxPoint x="-1780" y="-460" as="sourcePoint" />
            <mxPoint x="-1730" y="-510" as="targetPoint" />
          </mxGeometry>
        </mxCell>
        <mxCell id="MknB2XPxjjsTYUx9sq_i-43" value="1" style="edgeLabel;html=1;align=center;verticalAlign=middle;resizable=0;points=[];" parent="MknB2XPxjjsTYUx9sq_i-9" vertex="1" connectable="0">
          <mxGeometry x="0.5611" y="1" relative="1" as="geometry">
            <mxPoint as="offset" />
          </mxGeometry>
        </mxCell>
        <mxCell id="MknB2XPxjjsTYUx9sq_i-36" style="edgeStyle=orthogonalEdgeStyle;rounded=0;orthogonalLoop=1;jettySize=auto;html=1;exitX=0.75;exitY=1;exitDx=0;exitDy=0;" parent="1" source="MknB2XPxjjsTYUx9sq_i-10" edge="1">
          <mxGeometry relative="1" as="geometry">
            <mxPoint x="-1479.965517241379" as="targetPoint" />
          </mxGeometry>
        </mxCell>
        <mxCell id="MknB2XPxjjsTYUx9sq_i-47" value="1" style="edgeLabel;html=1;align=center;verticalAlign=middle;resizable=0;points=[];" parent="MknB2XPxjjsTYUx9sq_i-36" vertex="1" connectable="0">
          <mxGeometry x="-0.1628" y="-3" relative="1" as="geometry">
            <mxPoint as="offset" />
          </mxGeometry>
        </mxCell>
        <mxCell id="MknB2XPxjjsTYUx9sq_i-10" value="" style="rounded=0;whiteSpace=wrap;html=1;" parent="1" vertex="1">
          <mxGeometry x="-1570" y="-320" width="120" height="60" as="geometry" />
        </mxCell>
        <mxCell id="MknB2XPxjjsTYUx9sq_i-11" value="" style="endArrow=none;html=1;exitX=0.75;exitY=0;exitDx=0;exitDy=0;entryX=0.75;entryY=1;entryDx=0;entryDy=0;" parent="1" source="MknB2XPxjjsTYUx9sq_i-10" target="MknB2XPxjjsTYUx9sq_i-6" edge="1">
          <mxGeometry width="50" height="50" relative="1" as="geometry">
            <mxPoint x="-1370" y="-310" as="sourcePoint" />
            <mxPoint x="-1320" y="-360" as="targetPoint" />
          </mxGeometry>
        </mxCell>
        <mxCell id="MknB2XPxjjsTYUx9sq_i-46" value="1" style="edgeLabel;html=1;align=center;verticalAlign=middle;resizable=0;points=[];" parent="MknB2XPxjjsTYUx9sq_i-11" vertex="1" connectable="0">
          <mxGeometry x="-0.1323" relative="1" as="geometry">
            <mxPoint as="offset" />
          </mxGeometry>
        </mxCell>
        <mxCell id="MknB2XPxjjsTYUx9sq_i-12" value="" style="endArrow=none;html=1;entryX=0.75;entryY=1;entryDx=0;entryDy=0;exitX=0.5;exitY=0;exitDx=0;exitDy=0;" parent="1" source="MknB2XPxjjsTYUx9sq_i-10" target="MknB2XPxjjsTYUx9sq_i-4" edge="1">
          <mxGeometry width="50" height="50" relative="1" as="geometry">
            <mxPoint x="-1880" y="-430" as="sourcePoint" />
            <mxPoint x="-1830" y="-480" as="targetPoint" />
          </mxGeometry>
        </mxCell>
        <mxCell id="MknB2XPxjjsTYUx9sq_i-44" value="1" style="edgeLabel;html=1;align=center;verticalAlign=middle;resizable=0;points=[];" parent="MknB2XPxjjsTYUx9sq_i-12" vertex="1" connectable="0">
          <mxGeometry x="0.5907" y="2" relative="1" as="geometry">
            <mxPoint as="offset" />
          </mxGeometry>
        </mxCell>
        <mxCell id="MknB2XPxjjsTYUx9sq_i-13" value="" style="endArrow=none;html=1;entryX=0.75;entryY=1;entryDx=0;entryDy=0;exitX=0.25;exitY=0;exitDx=0;exitDy=0;" parent="1" source="MknB2XPxjjsTYUx9sq_i-10" target="MknB2XPxjjsTYUx9sq_i-5" edge="1">
          <mxGeometry width="50" height="50" relative="1" as="geometry">
            <mxPoint x="-1930" y="-380" as="sourcePoint" />
            <mxPoint x="-1880" y="-430" as="targetPoint" />
          </mxGeometry>
        </mxCell>
        <mxCell id="MknB2XPxjjsTYUx9sq_i-45" value="1" style="edgeLabel;html=1;align=center;verticalAlign=middle;resizable=0;points=[];" parent="MknB2XPxjjsTYUx9sq_i-13" vertex="1" connectable="0">
          <mxGeometry x="0.6906" y="3" relative="1" as="geometry">
            <mxPoint as="offset" />
          </mxGeometry>
        </mxCell>
        <mxCell id="MknB2XPxjjsTYUx9sq_i-15" value="" style="rounded=0;whiteSpace=wrap;html=1;" parent="1" vertex="1">
          <mxGeometry x="-1800" y="-320" width="120" height="60" as="geometry" />
        </mxCell>
        <mxCell id="MknB2XPxjjsTYUx9sq_i-16" value="" style="endArrow=none;html=1;entryX=0.25;entryY=1;entryDx=0;entryDy=0;exitX=0.75;exitY=0;exitDx=0;exitDy=0;" parent="1" source="MknB2XPxjjsTYUx9sq_i-15" target="MknB2XPxjjsTYUx9sq_i-1" edge="1">
          <mxGeometry width="50" height="50" relative="1" as="geometry">
            <mxPoint x="-1880" y="-410" as="sourcePoint" />
            <mxPoint x="-1820" y="-460" as="targetPoint" />
          </mxGeometry>
        </mxCell>
        <mxCell id="MknB2XPxjjsTYUx9sq_i-48" value="2" style="edgeLabel;html=1;align=center;verticalAlign=middle;resizable=0;points=[];" parent="MknB2XPxjjsTYUx9sq_i-16" vertex="1" connectable="0">
          <mxGeometry x="0.1266" relative="1" as="geometry">
            <mxPoint as="offset" />
          </mxGeometry>
        </mxCell>
        <mxCell id="MknB2XPxjjsTYUx9sq_i-17" value="" style="endArrow=none;html=1;entryX=0.25;entryY=1;entryDx=0;entryDy=0;exitX=0.5;exitY=0;exitDx=0;exitDy=0;" parent="1" source="MknB2XPxjjsTYUx9sq_i-15" target="MknB2XPxjjsTYUx9sq_i-2" edge="1">
          <mxGeometry width="50" height="50" relative="1" as="geometry">
            <mxPoint x="-1890" y="-390" as="sourcePoint" />
            <mxPoint x="-1840" y="-440" as="targetPoint" />
          </mxGeometry>
        </mxCell>
        <mxCell id="MknB2XPxjjsTYUx9sq_i-49" value="2" style="edgeLabel;html=1;align=center;verticalAlign=middle;resizable=0;points=[];" parent="MknB2XPxjjsTYUx9sq_i-17" vertex="1" connectable="0">
          <mxGeometry x="0.2683" y="2" relative="1" as="geometry">
            <mxPoint as="offset" />
          </mxGeometry>
        </mxCell>
        <mxCell id="MknB2XPxjjsTYUx9sq_i-18" value="" style="endArrow=none;html=1;entryX=0.25;entryY=1;entryDx=0;entryDy=0;exitX=0.25;exitY=0;exitDx=0;exitDy=0;" parent="1" source="MknB2XPxjjsTYUx9sq_i-15" target="MknB2XPxjjsTYUx9sq_i-3" edge="1">
          <mxGeometry width="50" height="50" relative="1" as="geometry">
            <mxPoint x="-1910" y="-430" as="sourcePoint" />
            <mxPoint x="-1860" y="-480" as="targetPoint" />
          </mxGeometry>
        </mxCell>
        <mxCell id="MknB2XPxjjsTYUx9sq_i-50" value="2" style="edgeLabel;html=1;align=center;verticalAlign=middle;resizable=0;points=[];" parent="MknB2XPxjjsTYUx9sq_i-18" vertex="1" connectable="0">
          <mxGeometry x="0.2025" y="-1" relative="1" as="geometry">
            <mxPoint as="offset" />
          </mxGeometry>
        </mxCell>
        <mxCell id="MknB2XPxjjsTYUx9sq_i-19" value="" style="rounded=0;whiteSpace=wrap;html=1;" parent="1" vertex="1">
          <mxGeometry x="-1960" y="-320" width="120" height="60" as="geometry" />
        </mxCell>
        <mxCell id="MknB2XPxjjsTYUx9sq_i-20" value="" style="endArrow=none;html=1;entryX=0.25;entryY=1;entryDx=0;entryDy=0;exitX=0.75;exitY=0;exitDx=0;exitDy=0;" parent="1" source="MknB2XPxjjsTYUx9sq_i-19" target="MknB2XPxjjsTYUx9sq_i-6" edge="1">
          <mxGeometry width="50" height="50" relative="1" as="geometry">
            <mxPoint x="-1900" y="-380" as="sourcePoint" />
            <mxPoint x="-1850" y="-430" as="targetPoint" />
          </mxGeometry>
        </mxCell>
        <mxCell id="MknB2XPxjjsTYUx9sq_i-53" value="2" style="edgeLabel;html=1;align=center;verticalAlign=middle;resizable=0;points=[];" parent="MknB2XPxjjsTYUx9sq_i-20" vertex="1" connectable="0">
          <mxGeometry x="0.6078" y="-2" relative="1" as="geometry">
            <mxPoint as="offset" />
          </mxGeometry>
        </mxCell>
        <mxCell id="MknB2XPxjjsTYUx9sq_i-21" value="" style="endArrow=none;html=1;entryX=0.25;entryY=1;entryDx=0;entryDy=0;exitX=0.5;exitY=0;exitDx=0;exitDy=0;" parent="1" source="MknB2XPxjjsTYUx9sq_i-19" target="MknB2XPxjjsTYUx9sq_i-4" edge="1">
          <mxGeometry width="50" height="50" relative="1" as="geometry">
            <mxPoint x="-1950" y="-380" as="sourcePoint" />
            <mxPoint x="-1900" y="-430" as="targetPoint" />
          </mxGeometry>
        </mxCell>
        <mxCell id="MknB2XPxjjsTYUx9sq_i-51" value="2" style="edgeLabel;html=1;align=center;verticalAlign=middle;resizable=0;points=[];" parent="MknB2XPxjjsTYUx9sq_i-21" vertex="1" connectable="0">
          <mxGeometry x="0.1976" relative="1" as="geometry">
            <mxPoint as="offset" />
          </mxGeometry>
        </mxCell>
        <mxCell id="MknB2XPxjjsTYUx9sq_i-22" value="" style="endArrow=none;html=1;exitX=0.25;exitY=0;exitDx=0;exitDy=0;entryX=0.25;entryY=1;entryDx=0;entryDy=0;" parent="1" source="MknB2XPxjjsTYUx9sq_i-19" target="MknB2XPxjjsTYUx9sq_i-5" edge="1">
          <mxGeometry width="50" height="50" relative="1" as="geometry">
            <mxPoint x="-1720" y="-470" as="sourcePoint" />
            <mxPoint x="-1670" y="-520" as="targetPoint" />
          </mxGeometry>
        </mxCell>
        <mxCell id="MknB2XPxjjsTYUx9sq_i-52" value="2" style="edgeLabel;html=1;align=center;verticalAlign=middle;resizable=0;points=[];" parent="MknB2XPxjjsTYUx9sq_i-22" vertex="1" connectable="0">
          <mxGeometry x="0.2215" y="2" relative="1" as="geometry">
            <mxPoint as="offset" />
          </mxGeometry>
        </mxCell>
        <mxCell id="MknB2XPxjjsTYUx9sq_i-37" style="edgeStyle=orthogonalEdgeStyle;rounded=0;orthogonalLoop=1;jettySize=auto;html=1;exitX=0.75;exitY=1;exitDx=0;exitDy=0;" parent="1" source="MknB2XPxjjsTYUx9sq_i-24" edge="1">
          <mxGeometry relative="1" as="geometry">
            <mxPoint x="-1559.9655172413793" as="targetPoint" />
          </mxGeometry>
        </mxCell>
        <mxCell id="MknB2XPxjjsTYUx9sq_i-61" value="2" style="edgeLabel;html=1;align=center;verticalAlign=middle;resizable=0;points=[];" parent="MknB2XPxjjsTYUx9sq_i-37" vertex="1" connectable="0">
          <mxGeometry x="-0.3007" relative="1" as="geometry">
            <mxPoint as="offset" />
          </mxGeometry>
        </mxCell>
        <mxCell id="MknB2XPxjjsTYUx9sq_i-24" value="" style="rounded=0;whiteSpace=wrap;html=1;" parent="1" vertex="1">
          <mxGeometry x="-1650" y="-210" width="120" height="60" as="geometry" />
        </mxCell>
        <mxCell id="MknB2XPxjjsTYUx9sq_i-25" value="" style="endArrow=none;html=1;entryX=0.25;entryY=1;entryDx=0;entryDy=0;exitX=0.75;exitY=0;exitDx=0;exitDy=0;" parent="1" source="MknB2XPxjjsTYUx9sq_i-24" target="MknB2XPxjjsTYUx9sq_i-10" edge="1">
          <mxGeometry width="50" height="50" relative="1" as="geometry">
            <mxPoint x="-1830" y="-120" as="sourcePoint" />
            <mxPoint x="-1780" y="-170" as="targetPoint" />
          </mxGeometry>
        </mxCell>
        <mxCell id="MknB2XPxjjsTYUx9sq_i-54" value="2" style="edgeLabel;html=1;align=center;verticalAlign=middle;resizable=0;points=[];" parent="MknB2XPxjjsTYUx9sq_i-25" vertex="1" connectable="0">
          <mxGeometry x="-0.3084" relative="1" as="geometry">
            <mxPoint as="offset" />
          </mxGeometry>
        </mxCell>
        <mxCell id="MknB2XPxjjsTYUx9sq_i-26" value="" style="endArrow=none;html=1;entryX=0.75;entryY=1;entryDx=0;entryDy=0;exitX=0.5;exitY=0;exitDx=0;exitDy=0;" parent="1" source="MknB2XPxjjsTYUx9sq_i-24" target="MknB2XPxjjsTYUx9sq_i-15" edge="1">
          <mxGeometry width="50" height="50" relative="1" as="geometry">
            <mxPoint x="-1940" y="-120" as="sourcePoint" />
            <mxPoint x="-1890" y="-170" as="targetPoint" />
          </mxGeometry>
        </mxCell>
        <mxCell id="MknB2XPxjjsTYUx9sq_i-55" value="2" style="edgeLabel;html=1;align=center;verticalAlign=middle;resizable=0;points=[];" parent="MknB2XPxjjsTYUx9sq_i-26" vertex="1" connectable="0">
          <mxGeometry x="-0.215" y="1" relative="1" as="geometry">
            <mxPoint as="offset" />
          </mxGeometry>
        </mxCell>
        <mxCell id="MknB2XPxjjsTYUx9sq_i-27" value="" style="endArrow=none;html=1;entryX=0.75;entryY=1;entryDx=0;entryDy=0;exitX=0.25;exitY=0;exitDx=0;exitDy=0;" parent="1" source="MknB2XPxjjsTYUx9sq_i-24" target="MknB2XPxjjsTYUx9sq_i-19" edge="1">
          <mxGeometry width="50" height="50" relative="1" as="geometry">
            <mxPoint x="-1840" y="-150" as="sourcePoint" />
            <mxPoint x="-1790" y="-200" as="targetPoint" />
          </mxGeometry>
        </mxCell>
        <mxCell id="MknB2XPxjjsTYUx9sq_i-56" value="2" style="edgeLabel;html=1;align=center;verticalAlign=middle;resizable=0;points=[];" parent="MknB2XPxjjsTYUx9sq_i-27" vertex="1" connectable="0">
          <mxGeometry x="-0.4491" y="-1" relative="1" as="geometry">
            <mxPoint as="offset" />
          </mxGeometry>
        </mxCell>
        <mxCell id="MknB2XPxjjsTYUx9sq_i-38" style="edgeStyle=orthogonalEdgeStyle;rounded=0;orthogonalLoop=1;jettySize=auto;html=1;exitX=0.75;exitY=1;exitDx=0;exitDy=0;" parent="1" source="MknB2XPxjjsTYUx9sq_i-28" edge="1">
          <mxGeometry relative="1" as="geometry">
            <mxPoint x="-1639.9655172413793" as="targetPoint" />
          </mxGeometry>
        </mxCell>
        <mxCell id="MknB2XPxjjsTYUx9sq_i-62" value="4" style="edgeLabel;html=1;align=center;verticalAlign=middle;resizable=0;points=[];" parent="MknB2XPxjjsTYUx9sq_i-38" vertex="1" connectable="0">
          <mxGeometry x="-0.2333" y="1" relative="1" as="geometry">
            <mxPoint as="offset" />
          </mxGeometry>
        </mxCell>
        <mxCell id="MknB2XPxjjsTYUx9sq_i-39" style="edgeStyle=orthogonalEdgeStyle;rounded=0;orthogonalLoop=1;jettySize=auto;html=1;exitX=0.25;exitY=1;exitDx=0;exitDy=0;" parent="1" source="MknB2XPxjjsTYUx9sq_i-28" edge="1">
          <mxGeometry relative="1" as="geometry">
            <mxPoint x="-1699.9655172413793" as="targetPoint" />
          </mxGeometry>
        </mxCell>
        <mxCell id="MknB2XPxjjsTYUx9sq_i-64" value="8" style="edgeLabel;html=1;align=center;verticalAlign=middle;resizable=0;points=[];" parent="MknB2XPxjjsTYUx9sq_i-39" vertex="1" connectable="0">
          <mxGeometry x="-0.2333" relative="1" as="geometry">
            <mxPoint as="offset" />
          </mxGeometry>
        </mxCell>
        <mxCell id="MknB2XPxjjsTYUx9sq_i-28" value="" style="rounded=0;whiteSpace=wrap;html=1;" parent="1" vertex="1">
          <mxGeometry x="-1730" y="-120" width="120" height="60" as="geometry" />
        </mxCell>
        <mxCell id="MknB2XPxjjsTYUx9sq_i-29" value="" style="endArrow=none;html=1;exitX=0.75;exitY=0;exitDx=0;exitDy=0;entryX=0.25;entryY=1;entryDx=0;entryDy=0;" parent="1" source="MknB2XPxjjsTYUx9sq_i-28" target="MknB2XPxjjsTYUx9sq_i-24" edge="1">
          <mxGeometry width="50" height="50" relative="1" as="geometry">
            <mxPoint x="-1680" y="-50" as="sourcePoint" />
            <mxPoint x="-1630" y="-100" as="targetPoint" />
          </mxGeometry>
        </mxCell>
        <mxCell id="MknB2XPxjjsTYUx9sq_i-60" value="4" style="edgeLabel;html=1;align=center;verticalAlign=middle;resizable=0;points=[];" parent="MknB2XPxjjsTYUx9sq_i-29" vertex="1" connectable="0">
          <mxGeometry x="-0.2239" y="1" relative="1" as="geometry">
            <mxPoint as="offset" />
          </mxGeometry>
        </mxCell>
        <mxCell id="MknB2XPxjjsTYUx9sq_i-30" value="" style="endArrow=none;html=1;entryX=0.25;entryY=1;entryDx=0;entryDy=0;exitX=0.5;exitY=0;exitDx=0;exitDy=0;" parent="1" source="MknB2XPxjjsTYUx9sq_i-28" target="MknB2XPxjjsTYUx9sq_i-15" edge="1">
          <mxGeometry width="50" height="50" relative="1" as="geometry">
            <mxPoint x="-1790" y="-150" as="sourcePoint" />
            <mxPoint x="-1740" y="-200" as="targetPoint" />
          </mxGeometry>
        </mxCell>
        <mxCell id="MknB2XPxjjsTYUx9sq_i-57" value="4" style="edgeLabel;html=1;align=center;verticalAlign=middle;resizable=0;points=[];" parent="MknB2XPxjjsTYUx9sq_i-30" vertex="1" connectable="0">
          <mxGeometry x="0.1203" y="-1" relative="1" as="geometry">
            <mxPoint as="offset" />
          </mxGeometry>
        </mxCell>
        <mxCell id="MknB2XPxjjsTYUx9sq_i-31" value="" style="endArrow=none;html=1;entryX=0.25;entryY=1;entryDx=0;entryDy=0;exitX=0.25;exitY=0;exitDx=0;exitDy=0;" parent="1" source="MknB2XPxjjsTYUx9sq_i-28" target="MknB2XPxjjsTYUx9sq_i-19" edge="1">
          <mxGeometry width="50" height="50" relative="1" as="geometry">
            <mxPoint x="-1960" y="-90" as="sourcePoint" />
            <mxPoint x="-1910" y="-140" as="targetPoint" />
          </mxGeometry>
        </mxCell>
        <mxCell id="MknB2XPxjjsTYUx9sq_i-58" value="4" style="edgeLabel;html=1;align=center;verticalAlign=middle;resizable=0;points=[];" parent="MknB2XPxjjsTYUx9sq_i-31" vertex="1" connectable="0">
          <mxGeometry x="-0.0836" y="-1" relative="1" as="geometry">
            <mxPoint as="offset" />
          </mxGeometry>
        </mxCell>
        <mxCell id="TAC-xLrDWU1YZyTag0T1-1" value="" style="endArrow=none;html=1;exitX=0.75;exitY=0;exitDx=0;exitDy=0;" edge="1" parent="1">
          <mxGeometry width="50" height="50" relative="1" as="geometry">
            <mxPoint x="-30.289999999999964" y="280" as="sourcePoint" />
            <mxPoint x="-30.289999999999964" y="240" as="targetPoint" />
          </mxGeometry>
        </mxCell>
        <mxCell id="TAC-xLrDWU1YZyTag0T1-2" value="" style="endArrow=none;html=1;exitX=0.75;exitY=0;exitDx=0;exitDy=0;" edge="1" parent="1">
          <mxGeometry width="50" height="50" relative="1" as="geometry">
            <mxPoint x="-60.529999999999745" y="280" as="sourcePoint" />
            <mxPoint x="-60.529999999999745" y="240" as="targetPoint" />
          </mxGeometry>
        </mxCell>
        <mxCell id="TAC-xLrDWU1YZyTag0T1-3" value="" style="endArrow=none;html=1;exitX=0.75;exitY=0;exitDx=0;exitDy=0;" edge="1" parent="1">
          <mxGeometry width="50" height="50" relative="1" as="geometry">
            <mxPoint x="-90.28999999999996" y="280" as="sourcePoint" />
            <mxPoint x="-90.28999999999996" y="240" as="targetPoint" />
          </mxGeometry>
        </mxCell>
        <mxCell id="TAC-xLrDWU1YZyTag0T1-4" value="" style="endArrow=none;html=1;exitX=0.75;exitY=0;exitDx=0;exitDy=0;" edge="1" parent="1">
          <mxGeometry width="50" height="50" relative="1" as="geometry">
            <mxPoint x="129.71000000000004" y="280" as="sourcePoint" />
            <mxPoint x="129.71000000000004" y="240" as="targetPoint" />
          </mxGeometry>
        </mxCell>
        <mxCell id="TAC-xLrDWU1YZyTag0T1-5" value="" style="endArrow=none;html=1;exitX=0.75;exitY=0;exitDx=0;exitDy=0;" edge="1" parent="1">
          <mxGeometry width="50" height="50" relative="1" as="geometry">
            <mxPoint x="99.47000000000025" y="280" as="sourcePoint" />
            <mxPoint x="99.47000000000025" y="240" as="targetPoint" />
          </mxGeometry>
        </mxCell>
        <mxCell id="TAC-xLrDWU1YZyTag0T1-6" value="" style="endArrow=none;html=1;exitX=0.75;exitY=0;exitDx=0;exitDy=0;" edge="1" parent="1">
          <mxGeometry width="50" height="50" relative="1" as="geometry">
            <mxPoint x="69.71000000000004" y="280" as="sourcePoint" />
            <mxPoint x="69.71000000000004" y="240" as="targetPoint" />
          </mxGeometry>
        </mxCell>
        <mxCell id="TAC-xLrDWU1YZyTag0T1-7" value="" style="endArrow=none;html=1;exitX=0.75;exitY=0;exitDx=0;exitDy=0;" edge="1" parent="1">
          <mxGeometry width="50" height="50" relative="1" as="geometry">
            <mxPoint x="329.68000000000006" y="280" as="sourcePoint" />
            <mxPoint x="329.68000000000006" y="240" as="targetPoint" />
          </mxGeometry>
        </mxCell>
        <mxCell id="TAC-xLrDWU1YZyTag0T1-8" value="" style="endArrow=none;html=1;exitX=0.75;exitY=0;exitDx=0;exitDy=0;" edge="1" parent="1">
          <mxGeometry width="50" height="50" relative="1" as="geometry">
            <mxPoint x="299.4400000000003" y="280" as="sourcePoint" />
            <mxPoint x="299.4400000000003" y="240" as="targetPoint" />
          </mxGeometry>
        </mxCell>
        <mxCell id="TAC-xLrDWU1YZyTag0T1-9" value="" style="endArrow=none;html=1;exitX=0.75;exitY=0;exitDx=0;exitDy=0;" edge="1" parent="1">
          <mxGeometry width="50" height="50" relative="1" as="geometry">
            <mxPoint x="269.68000000000006" y="280" as="sourcePoint" />
            <mxPoint x="269.68000000000006" y="240" as="targetPoint" />
          </mxGeometry>
        </mxCell>
        <mxCell id="TAC-xLrDWU1YZyTag0T1-10" value="" style="endArrow=none;html=1;exitX=0.75;exitY=0;exitDx=0;exitDy=0;" edge="1" parent="1">
          <mxGeometry width="50" height="50" relative="1" as="geometry">
            <mxPoint x="489.93000000000006" y="280" as="sourcePoint" />
            <mxPoint x="489.93000000000006" y="240" as="targetPoint" />
          </mxGeometry>
        </mxCell>
        <mxCell id="TAC-xLrDWU1YZyTag0T1-11" value="" style="endArrow=none;html=1;exitX=0.75;exitY=0;exitDx=0;exitDy=0;" edge="1" parent="1">
          <mxGeometry width="50" height="50" relative="1" as="geometry">
            <mxPoint x="459.6900000000003" y="280" as="sourcePoint" />
            <mxPoint x="459.6900000000003" y="240" as="targetPoint" />
          </mxGeometry>
        </mxCell>
        <mxCell id="TAC-xLrDWU1YZyTag0T1-12" value="" style="endArrow=none;html=1;exitX=0.75;exitY=0;exitDx=0;exitDy=0;" edge="1" parent="1">
          <mxGeometry width="50" height="50" relative="1" as="geometry">
            <mxPoint x="429.93000000000006" y="280" as="sourcePoint" />
            <mxPoint x="429.93000000000006" y="240" as="targetPoint" />
          </mxGeometry>
        </mxCell>
        <mxCell id="TAC-xLrDWU1YZyTag0T1-13" value="" style="endArrow=none;html=1;exitX=0.75;exitY=0;exitDx=0;exitDy=0;" edge="1" parent="1">
          <mxGeometry width="50" height="50" relative="1" as="geometry">
            <mxPoint x="649.9300000000001" y="280" as="sourcePoint" />
            <mxPoint x="649.9300000000001" y="240" as="targetPoint" />
          </mxGeometry>
        </mxCell>
        <mxCell id="TAC-xLrDWU1YZyTag0T1-14" value="" style="endArrow=none;html=1;exitX=0.75;exitY=0;exitDx=0;exitDy=0;" edge="1" parent="1">
          <mxGeometry width="50" height="50" relative="1" as="geometry">
            <mxPoint x="619.6900000000003" y="280" as="sourcePoint" />
            <mxPoint x="619.6900000000003" y="240" as="targetPoint" />
          </mxGeometry>
        </mxCell>
        <mxCell id="TAC-xLrDWU1YZyTag0T1-15" value="" style="endArrow=none;html=1;exitX=0.75;exitY=0;exitDx=0;exitDy=0;" edge="1" parent="1">
          <mxGeometry width="50" height="50" relative="1" as="geometry">
            <mxPoint x="589.9300000000001" y="280" as="sourcePoint" />
            <mxPoint x="589.9300000000001" y="240" as="targetPoint" />
          </mxGeometry>
        </mxCell>
        <mxCell id="TAC-xLrDWU1YZyTag0T1-16" value="FA" style="rounded=0;whiteSpace=wrap;html=1;fontSize=20;" vertex="1" parent="1">
          <mxGeometry x="520" y="-1000" width="120" height="60" as="geometry" />
        </mxCell>
        <mxCell id="TAC-xLrDWU1YZyTag0T1-17" value="" style="endArrow=none;html=1;exitX=0.75;exitY=0;exitDx=0;exitDy=0;" edge="1" parent="1" source="TAC-xLrDWU1YZyTag0T1-16">
          <mxGeometry width="50" height="50" relative="1" as="geometry">
            <mxPoint x="640" y="-1030" as="sourcePoint" />
            <mxPoint x="610" y="-1030" as="targetPoint" />
          </mxGeometry>
        </mxCell>
        <mxCell id="TAC-xLrDWU1YZyTag0T1-18" value="" style="endArrow=none;html=1;exitX=0.5;exitY=0;exitDx=0;exitDy=0;" edge="1" parent="1" source="TAC-xLrDWU1YZyTag0T1-16">
          <mxGeometry width="50" height="50" relative="1" as="geometry">
            <mxPoint x="620" y="-1060" as="sourcePoint" />
            <mxPoint x="580" y="-1050" as="targetPoint" />
          </mxGeometry>
        </mxCell>
        <mxCell id="TAC-xLrDWU1YZyTag0T1-19" value="" style="endArrow=none;html=1;exitX=0.25;exitY=0;exitDx=0;exitDy=0;" edge="1" parent="1" source="TAC-xLrDWU1YZyTag0T1-16">
          <mxGeometry width="50" height="50" relative="1" as="geometry">
            <mxPoint x="600" y="-840" as="sourcePoint" />
            <mxPoint x="550" y="-1080" as="targetPoint" />
          </mxGeometry>
        </mxCell>
        <mxCell id="TAC-xLrDWU1YZyTag0T1-20" value="HA" style="rounded=0;whiteSpace=wrap;html=1;fontSize=20;" vertex="1" parent="1">
          <mxGeometry x="520" y="-840" width="120" height="60" as="geometry" />
        </mxCell>
        <mxCell id="TAC-xLrDWU1YZyTag0T1-21" value="HA" style="rounded=0;whiteSpace=wrap;html=1;fontSize=20;" vertex="1" parent="1">
          <mxGeometry x="520" y="-680" width="120" height="60" as="geometry" />
        </mxCell>
        <mxCell id="TAC-xLrDWU1YZyTag0T1-35" style="edgeStyle=orthogonalEdgeStyle;rounded=0;orthogonalLoop=1;jettySize=auto;html=1;exitX=0.75;exitY=1;exitDx=0;exitDy=0;" edge="1" parent="1" source="TAC-xLrDWU1YZyTag0T1-22">
          <mxGeometry relative="1" as="geometry">
            <mxPoint x="610" y="-280" as="targetPoint" />
          </mxGeometry>
        </mxCell>
        <mxCell id="TAC-xLrDWU1YZyTag0T1-22" value="HA" style="rounded=0;whiteSpace=wrap;html=1;fontSize=20;" vertex="1" parent="1">
          <mxGeometry x="520" y="-520" width="120" height="60" as="geometry" />
        </mxCell>
        <mxCell id="TAC-xLrDWU1YZyTag0T1-23" value="" style="endArrow=none;html=1;exitX=0.75;exitY=0;exitDx=0;exitDy=0;entryX=0.75;entryY=1;entryDx=0;entryDy=0;" edge="1" parent="1" source="TAC-xLrDWU1YZyTag0T1-20" target="TAC-xLrDWU1YZyTag0T1-16">
          <mxGeometry width="50" height="50" relative="1" as="geometry">
            <mxPoint x="730" y="-830" as="sourcePoint" />
            <mxPoint x="780" y="-880" as="targetPoint" />
          </mxGeometry>
        </mxCell>
        <mxCell id="TAC-xLrDWU1YZyTag0T1-24" value="" style="endArrow=none;html=1;exitX=0.75;exitY=0;exitDx=0;exitDy=0;entryX=0.75;entryY=1;entryDx=0;entryDy=0;" edge="1" parent="1">
          <mxGeometry width="50" height="50" relative="1" as="geometry">
            <mxPoint x="610" y="-680" as="sourcePoint" />
            <mxPoint x="610" y="-780" as="targetPoint" />
          </mxGeometry>
        </mxCell>
        <mxCell id="TAC-xLrDWU1YZyTag0T1-25" value="" style="endArrow=none;html=1;exitX=0.75;exitY=0;exitDx=0;exitDy=0;entryX=0.75;entryY=1;entryDx=0;entryDy=0;" edge="1" parent="1">
          <mxGeometry width="50" height="50" relative="1" as="geometry">
            <mxPoint x="610" y="-520" as="sourcePoint" />
            <mxPoint x="610" y="-620" as="targetPoint" />
          </mxGeometry>
        </mxCell>
        <mxCell id="TAC-xLrDWU1YZyTag0T1-26" value="" style="endArrow=none;html=1;exitX=0.75;exitY=0;exitDx=0;exitDy=0;" edge="1" parent="1">
          <mxGeometry width="50" height="50" relative="1" as="geometry">
            <mxPoint x="550" y="-840" as="sourcePoint" />
            <mxPoint x="550" y="-870" as="targetPoint" />
          </mxGeometry>
        </mxCell>
        <mxCell id="TAC-xLrDWU1YZyTag0T1-27" value="" style="endArrow=none;html=1;exitX=0.75;exitY=0;exitDx=0;exitDy=0;" edge="1" parent="1">
          <mxGeometry width="50" height="50" relative="1" as="geometry">
            <mxPoint x="550" y="-680" as="sourcePoint" />
            <mxPoint x="550" y="-710" as="targetPoint" />
          </mxGeometry>
        </mxCell>
        <mxCell id="TAC-xLrDWU1YZyTag0T1-28" value="" style="endArrow=none;html=1;exitX=0.75;exitY=0;exitDx=0;exitDy=0;" edge="1" parent="1">
          <mxGeometry width="50" height="50" relative="1" as="geometry">
            <mxPoint x="550" y="-520" as="sourcePoint" />
            <mxPoint x="550" y="-550" as="targetPoint" />
          </mxGeometry>
        </mxCell>
        <mxCell id="TAC-xLrDWU1YZyTag0T1-29" value="x(3)" style="text;html=1;align=center;verticalAlign=middle;resizable=0;points=[];autosize=1;" vertex="1" parent="1">
          <mxGeometry x="640" y="-1040" width="40" height="20" as="geometry" />
        </mxCell>
        <mxCell id="TAC-xLrDWU1YZyTag0T1-30" value="x(2)" style="text;html=1;align=center;verticalAlign=middle;resizable=0;points=[];autosize=1;" vertex="1" parent="1">
          <mxGeometry x="640" y="-1060" width="40" height="20" as="geometry" />
        </mxCell>
        <mxCell id="TAC-xLrDWU1YZyTag0T1-31" value="x(1)" style="text;html=1;align=center;verticalAlign=middle;resizable=0;points=[];autosize=1;" vertex="1" parent="1">
          <mxGeometry x="640" y="-1080" width="40" height="20" as="geometry" />
        </mxCell>
        <mxCell id="TAC-xLrDWU1YZyTag0T1-32" value="x(4)" style="text;html=1;align=center;verticalAlign=middle;resizable=0;points=[];autosize=1;" vertex="1" parent="1">
          <mxGeometry x="640" y="-870" width="40" height="20" as="geometry" />
        </mxCell>
        <mxCell id="TAC-xLrDWU1YZyTag0T1-33" value="x(5)" style="text;html=1;align=center;verticalAlign=middle;resizable=0;points=[];autosize=1;" vertex="1" parent="1">
          <mxGeometry x="640" y="-710" width="40" height="20" as="geometry" />
        </mxCell>
        <mxCell id="TAC-xLrDWU1YZyTag0T1-34" value="x(6)" style="text;html=1;align=center;verticalAlign=middle;resizable=0;points=[];autosize=1;" vertex="1" parent="1">
          <mxGeometry x="640" y="-550" width="40" height="20" as="geometry" />
        </mxCell>
        <mxCell id="TAC-xLrDWU1YZyTag0T1-36" value="FA" style="rounded=0;whiteSpace=wrap;html=1;fontSize=20;" vertex="1" parent="1">
          <mxGeometry x="360" y="-1000" width="120" height="60" as="geometry" />
        </mxCell>
        <mxCell id="TAC-xLrDWU1YZyTag0T1-37" value="" style="endArrow=none;html=1;exitX=0.75;exitY=0;exitDx=0;exitDy=0;" edge="1" source="TAC-xLrDWU1YZyTag0T1-36" parent="1">
          <mxGeometry width="50" height="50" relative="1" as="geometry">
            <mxPoint x="480" y="-1030" as="sourcePoint" />
            <mxPoint x="450" y="-1030" as="targetPoint" />
          </mxGeometry>
        </mxCell>
        <mxCell id="TAC-xLrDWU1YZyTag0T1-38" value="" style="endArrow=none;html=1;exitX=0.5;exitY=0;exitDx=0;exitDy=0;" edge="1" source="TAC-xLrDWU1YZyTag0T1-36" parent="1">
          <mxGeometry width="50" height="50" relative="1" as="geometry">
            <mxPoint x="460" y="-1060" as="sourcePoint" />
            <mxPoint x="420" y="-1050" as="targetPoint" />
          </mxGeometry>
        </mxCell>
        <mxCell id="TAC-xLrDWU1YZyTag0T1-39" value="" style="endArrow=none;html=1;exitX=0.25;exitY=0;exitDx=0;exitDy=0;" edge="1" source="TAC-xLrDWU1YZyTag0T1-36" parent="1">
          <mxGeometry width="50" height="50" relative="1" as="geometry">
            <mxPoint x="440" y="-840" as="sourcePoint" />
            <mxPoint x="390" y="-1080" as="targetPoint" />
          </mxGeometry>
        </mxCell>
        <mxCell id="TAC-xLrDWU1YZyTag0T1-41" value="FA" style="rounded=0;whiteSpace=wrap;html=1;fontSize=20;" vertex="1" parent="1">
          <mxGeometry x="200" y="-1000" width="120" height="60" as="geometry" />
        </mxCell>
        <mxCell id="TAC-xLrDWU1YZyTag0T1-42" value="" style="endArrow=none;html=1;exitX=0.75;exitY=0;exitDx=0;exitDy=0;" edge="1" source="TAC-xLrDWU1YZyTag0T1-41" parent="1">
          <mxGeometry width="50" height="50" relative="1" as="geometry">
            <mxPoint x="320" y="-1030" as="sourcePoint" />
            <mxPoint x="290" y="-1030" as="targetPoint" />
          </mxGeometry>
        </mxCell>
        <mxCell id="TAC-xLrDWU1YZyTag0T1-43" value="" style="endArrow=none;html=1;exitX=0.5;exitY=0;exitDx=0;exitDy=0;" edge="1" source="TAC-xLrDWU1YZyTag0T1-41" parent="1">
          <mxGeometry width="50" height="50" relative="1" as="geometry">
            <mxPoint x="300" y="-1060" as="sourcePoint" />
            <mxPoint x="260" y="-1050" as="targetPoint" />
          </mxGeometry>
        </mxCell>
        <mxCell id="TAC-xLrDWU1YZyTag0T1-44" value="" style="endArrow=none;html=1;exitX=0.25;exitY=0;exitDx=0;exitDy=0;" edge="1" source="TAC-xLrDWU1YZyTag0T1-41" parent="1">
          <mxGeometry width="50" height="50" relative="1" as="geometry">
            <mxPoint x="280" y="-840" as="sourcePoint" />
            <mxPoint x="230" y="-1080" as="targetPoint" />
          </mxGeometry>
        </mxCell>
        <mxCell id="TAC-xLrDWU1YZyTag0T1-45" value="FA" style="rounded=0;whiteSpace=wrap;html=1;fontSize=20;" vertex="1" parent="1">
          <mxGeometry x="40" y="-1000" width="120" height="60" as="geometry" />
        </mxCell>
        <mxCell id="TAC-xLrDWU1YZyTag0T1-46" value="" style="endArrow=none;html=1;exitX=0.75;exitY=0;exitDx=0;exitDy=0;" edge="1" source="TAC-xLrDWU1YZyTag0T1-45" parent="1">
          <mxGeometry width="50" height="50" relative="1" as="geometry">
            <mxPoint x="160" y="-1030" as="sourcePoint" />
            <mxPoint x="130" y="-1030" as="targetPoint" />
          </mxGeometry>
        </mxCell>
        <mxCell id="TAC-xLrDWU1YZyTag0T1-47" value="" style="endArrow=none;html=1;exitX=0.5;exitY=0;exitDx=0;exitDy=0;" edge="1" source="TAC-xLrDWU1YZyTag0T1-45" parent="1">
          <mxGeometry width="50" height="50" relative="1" as="geometry">
            <mxPoint x="140" y="-1060" as="sourcePoint" />
            <mxPoint x="100" y="-1050" as="targetPoint" />
          </mxGeometry>
        </mxCell>
        <mxCell id="TAC-xLrDWU1YZyTag0T1-48" value="" style="endArrow=none;html=1;exitX=0.25;exitY=0;exitDx=0;exitDy=0;" edge="1" source="TAC-xLrDWU1YZyTag0T1-45" parent="1">
          <mxGeometry width="50" height="50" relative="1" as="geometry">
            <mxPoint x="120" y="-840" as="sourcePoint" />
            <mxPoint x="70" y="-1080" as="targetPoint" />
          </mxGeometry>
        </mxCell>
        <mxCell id="TAC-xLrDWU1YZyTag0T1-49" value="FA" style="rounded=0;whiteSpace=wrap;html=1;fontSize=20;" vertex="1" parent="1">
          <mxGeometry x="-120" y="-1000" width="120" height="60" as="geometry" />
        </mxCell>
        <mxCell id="TAC-xLrDWU1YZyTag0T1-50" value="" style="endArrow=none;html=1;exitX=0.75;exitY=0;exitDx=0;exitDy=0;" edge="1" source="TAC-xLrDWU1YZyTag0T1-49" parent="1">
          <mxGeometry width="50" height="50" relative="1" as="geometry">
            <mxPoint y="-1030" as="sourcePoint" />
            <mxPoint x="-30" y="-1030" as="targetPoint" />
          </mxGeometry>
        </mxCell>
        <mxCell id="TAC-xLrDWU1YZyTag0T1-51" value="" style="endArrow=none;html=1;exitX=0.5;exitY=0;exitDx=0;exitDy=0;" edge="1" source="TAC-xLrDWU1YZyTag0T1-49" parent="1">
          <mxGeometry width="50" height="50" relative="1" as="geometry">
            <mxPoint x="-20" y="-1060" as="sourcePoint" />
            <mxPoint x="-60" y="-1050" as="targetPoint" />
          </mxGeometry>
        </mxCell>
        <mxCell id="TAC-xLrDWU1YZyTag0T1-52" value="" style="endArrow=none;html=1;exitX=0.25;exitY=0;exitDx=0;exitDy=0;" edge="1" source="TAC-xLrDWU1YZyTag0T1-49" parent="1">
          <mxGeometry width="50" height="50" relative="1" as="geometry">
            <mxPoint x="-40" y="-840" as="sourcePoint" />
            <mxPoint x="-90" y="-1080" as="targetPoint" />
          </mxGeometry>
        </mxCell>
        <mxCell id="TAC-xLrDWU1YZyTag0T1-53" value="FA" style="rounded=0;whiteSpace=wrap;html=1;fontSize=20;" vertex="1" parent="1">
          <mxGeometry x="360" y="-840" width="120" height="60" as="geometry" />
        </mxCell>
        <mxCell id="TAC-xLrDWU1YZyTag0T1-54" value="FA" style="rounded=0;whiteSpace=wrap;html=1;fontSize=20;" vertex="1" parent="1">
          <mxGeometry x="360" y="-680" width="120" height="60" as="geometry" />
        </mxCell>
        <mxCell id="TAC-xLrDWU1YZyTag0T1-55" value="FA" style="rounded=0;whiteSpace=wrap;html=1;fontSize=20;" vertex="1" parent="1">
          <mxGeometry x="360" y="-520" width="120" height="60" as="geometry" />
        </mxCell>
        <mxCell id="TAC-xLrDWU1YZyTag0T1-56" value="FA" style="rounded=0;whiteSpace=wrap;html=1;fontSize=20;" vertex="1" parent="1">
          <mxGeometry x="200" y="-840" width="120" height="60" as="geometry" />
        </mxCell>
        <mxCell id="TAC-xLrDWU1YZyTag0T1-57" value="FA" style="rounded=0;whiteSpace=wrap;html=1;fontSize=20;" vertex="1" parent="1">
          <mxGeometry x="200" y="-680" width="120" height="60" as="geometry" />
        </mxCell>
        <mxCell id="TAC-xLrDWU1YZyTag0T1-58" value="FA" style="rounded=0;whiteSpace=wrap;html=1;fontSize=20;" vertex="1" parent="1">
          <mxGeometry x="200" y="-520" width="120" height="60" as="geometry" />
        </mxCell>
        <mxCell id="TAC-xLrDWU1YZyTag0T1-59" value="FA" style="rounded=0;whiteSpace=wrap;html=1;fontSize=20;" vertex="1" parent="1">
          <mxGeometry x="40" y="-840" width="120" height="60" as="geometry" />
        </mxCell>
        <mxCell id="TAC-xLrDWU1YZyTag0T1-60" value="FA" style="rounded=0;whiteSpace=wrap;html=1;fontSize=20;" vertex="1" parent="1">
          <mxGeometry x="40" y="-680" width="120" height="60" as="geometry" />
        </mxCell>
        <mxCell id="TAC-xLrDWU1YZyTag0T1-61" value="FA" style="rounded=0;whiteSpace=wrap;html=1;fontSize=20;" vertex="1" parent="1">
          <mxGeometry x="40" y="-520" width="120" height="60" as="geometry" />
        </mxCell>
        <mxCell id="TAC-xLrDWU1YZyTag0T1-62" value="FA" style="rounded=0;whiteSpace=wrap;html=1;fontSize=20;" vertex="1" parent="1">
          <mxGeometry x="-120" y="-840" width="120" height="60" as="geometry" />
        </mxCell>
        <mxCell id="TAC-xLrDWU1YZyTag0T1-63" value="FA" style="rounded=0;whiteSpace=wrap;html=1;fontSize=20;" vertex="1" parent="1">
          <mxGeometry x="-120" y="-680" width="120" height="60" as="geometry" />
        </mxCell>
        <mxCell id="TAC-xLrDWU1YZyTag0T1-64" value="FA" style="rounded=0;whiteSpace=wrap;html=1;fontSize=20;" vertex="1" parent="1">
          <mxGeometry x="-120" y="-520" width="120" height="60" as="geometry" />
        </mxCell>
        <mxCell id="TAC-xLrDWU1YZyTag0T1-65" value="FA" style="rounded=0;whiteSpace=wrap;html=1;fontSize=20;" vertex="1" parent="1">
          <mxGeometry x="-280" y="-680" width="120" height="60" as="geometry" />
        </mxCell>
        <mxCell id="TAC-xLrDWU1YZyTag0T1-66" value="FA" style="rounded=0;whiteSpace=wrap;html=1;fontSize=20;" vertex="1" parent="1">
          <mxGeometry x="-280" y="-520" width="120" height="60" as="geometry" />
        </mxCell>
        <mxCell id="TAC-xLrDWU1YZyTag0T1-67" value="CPA" style="rounded=0;whiteSpace=wrap;html=1;fontSize=20;" vertex="1" parent="1">
          <mxGeometry x="-400" y="-400" width="960" height="80" as="geometry" />
        </mxCell>
        <mxCell id="TAC-xLrDWU1YZyTag0T1-68" value="" style="endArrow=none;html=1;fontSize=20;entryX=0.25;entryY=1;entryDx=0;entryDy=0;exitX=0.75;exitY=0;exitDx=0;exitDy=0;" edge="1" parent="1" source="TAC-xLrDWU1YZyTag0T1-53" target="TAC-xLrDWU1YZyTag0T1-16">
          <mxGeometry width="50" height="50" relative="1" as="geometry">
            <mxPoint x="490" y="-870" as="sourcePoint" />
            <mxPoint x="540" y="-920" as="targetPoint" />
            <Array as="points">
              <mxPoint x="450" y="-860" />
              <mxPoint x="550" y="-920" />
            </Array>
          </mxGeometry>
        </mxCell>
        <mxCell id="TAC-xLrDWU1YZyTag0T1-69" value="" style="endArrow=none;html=1;fontSize=20;entryX=0.75;entryY=1;entryDx=0;entryDy=0;exitX=0.5;exitY=0;exitDx=0;exitDy=0;" edge="1" parent="1" source="TAC-xLrDWU1YZyTag0T1-53" target="TAC-xLrDWU1YZyTag0T1-36">
          <mxGeometry width="50" height="50" relative="1" as="geometry">
            <mxPoint x="330" y="-850" as="sourcePoint" />
            <mxPoint x="380" y="-900" as="targetPoint" />
            <Array as="points">
              <mxPoint x="420" y="-860" />
              <mxPoint x="450" y="-920" />
            </Array>
          </mxGeometry>
        </mxCell>
        <mxCell id="TAC-xLrDWU1YZyTag0T1-70" value="" style="endArrow=none;html=1;fontSize=20;entryX=0.25;entryY=1;entryDx=0;entryDy=0;exitX=0.75;exitY=0;exitDx=0;exitDy=0;" edge="1" parent="1" source="TAC-xLrDWU1YZyTag0T1-56" target="TAC-xLrDWU1YZyTag0T1-36">
          <mxGeometry width="50" height="50" relative="1" as="geometry">
            <mxPoint x="350" y="-870" as="sourcePoint" />
            <mxPoint x="400" y="-920" as="targetPoint" />
            <Array as="points">
              <mxPoint x="290" y="-860" />
              <mxPoint x="390" y="-920" />
            </Array>
          </mxGeometry>
        </mxCell>
        <mxCell id="TAC-xLrDWU1YZyTag0T1-72" value="" style="endArrow=none;html=1;exitX=0.75;exitY=0;exitDx=0;exitDy=0;" edge="1" parent="1">
          <mxGeometry width="50" height="50" relative="1" as="geometry">
            <mxPoint x="390" y="-839.9999999999998" as="sourcePoint" />
            <mxPoint x="390" y="-870" as="targetPoint" />
          </mxGeometry>
        </mxCell>
        <mxCell id="TAC-xLrDWU1YZyTag0T1-73" value="" style="endArrow=none;html=1;exitX=0.75;exitY=0;exitDx=0;exitDy=0;" edge="1" parent="1">
          <mxGeometry width="50" height="50" relative="1" as="geometry">
            <mxPoint x="229.41000000000003" y="-840" as="sourcePoint" />
            <mxPoint x="229.41000000000003" y="-870" as="targetPoint" />
          </mxGeometry>
        </mxCell>
        <mxCell id="TAC-xLrDWU1YZyTag0T1-74" value="" style="endArrow=none;html=1;fontSize=20;entryX=0.25;entryY=1;entryDx=0;entryDy=0;exitX=0.75;exitY=0;exitDx=0;exitDy=0;" edge="1" parent="1">
          <mxGeometry width="50" height="50" relative="1" as="geometry">
            <mxPoint x="129.41000000000003" y="-840" as="sourcePoint" />
            <mxPoint x="229.41000000000003" y="-940" as="targetPoint" />
            <Array as="points">
              <mxPoint x="129.41000000000003" y="-860" />
              <mxPoint x="229.41000000000003" y="-920" />
            </Array>
          </mxGeometry>
        </mxCell>
        <mxCell id="TAC-xLrDWU1YZyTag0T1-75" value="" style="endArrow=none;html=1;fontSize=20;entryX=0.75;entryY=1;entryDx=0;entryDy=0;exitX=0.5;exitY=0;exitDx=0;exitDy=0;" edge="1" parent="1">
          <mxGeometry width="50" height="50" relative="1" as="geometry">
            <mxPoint x="99.41000000000003" y="-840" as="sourcePoint" />
            <mxPoint x="129.41000000000003" y="-940" as="targetPoint" />
            <Array as="points">
              <mxPoint x="99.41000000000003" y="-860" />
              <mxPoint x="129.41000000000003" y="-920" />
            </Array>
          </mxGeometry>
        </mxCell>
        <mxCell id="TAC-xLrDWU1YZyTag0T1-76" value="" style="endArrow=none;html=1;fontSize=20;entryX=0.25;entryY=1;entryDx=0;entryDy=0;exitX=0.75;exitY=0;exitDx=0;exitDy=0;" edge="1" parent="1">
          <mxGeometry width="50" height="50" relative="1" as="geometry">
            <mxPoint x="-30.589999999999975" y="-840" as="sourcePoint" />
            <mxPoint x="69.41000000000003" y="-940" as="targetPoint" />
            <Array as="points">
              <mxPoint x="-30.589999999999975" y="-860" />
              <mxPoint x="69.41000000000003" y="-920" />
            </Array>
          </mxGeometry>
        </mxCell>
        <mxCell id="TAC-xLrDWU1YZyTag0T1-77" value="" style="endArrow=none;html=1;exitX=0.75;exitY=0;exitDx=0;exitDy=0;" edge="1" parent="1">
          <mxGeometry width="50" height="50" relative="1" as="geometry">
            <mxPoint x="69.41000000000003" y="-839.9999999999998" as="sourcePoint" />
            <mxPoint x="69.41000000000003" y="-870" as="targetPoint" />
          </mxGeometry>
        </mxCell>
        <mxCell id="TAC-xLrDWU1YZyTag0T1-78" value="" style="endArrow=none;html=1;fontSize=20;entryX=0.75;entryY=1;entryDx=0;entryDy=0;exitX=0.5;exitY=0;exitDx=0;exitDy=0;" edge="1" parent="1">
          <mxGeometry width="50" height="50" relative="1" as="geometry">
            <mxPoint x="260" y="-840" as="sourcePoint" />
            <mxPoint x="290" y="-940" as="targetPoint" />
            <Array as="points">
              <mxPoint x="260" y="-860" />
              <mxPoint x="290" y="-920" />
            </Array>
          </mxGeometry>
        </mxCell>
        <mxCell id="TAC-xLrDWU1YZyTag0T1-79" value="" style="endArrow=none;html=1;fontSize=20;entryX=0.75;entryY=1;entryDx=0;entryDy=0;exitX=0.5;exitY=0;exitDx=0;exitDy=0;" edge="1" parent="1">
          <mxGeometry width="50" height="50" relative="1" as="geometry">
            <mxPoint x="-60.00000000000014" y="-840" as="sourcePoint" />
            <mxPoint x="-30.000000000000142" y="-940" as="targetPoint" />
            <Array as="points">
              <mxPoint x="-59.99999999999997" y="-860" />
              <mxPoint x="-29.99999999999997" y="-920" />
            </Array>
          </mxGeometry>
        </mxCell>
        <mxCell id="TAC-xLrDWU1YZyTag0T1-80" value="" style="endArrow=none;html=1;exitX=0.75;exitY=0;exitDx=0;exitDy=0;" edge="1" parent="1">
          <mxGeometry width="50" height="50" relative="1" as="geometry">
            <mxPoint x="-90.00000000000014" y="-839.9999999999998" as="sourcePoint" />
            <mxPoint x="-90.00000000000014" y="-870" as="targetPoint" />
          </mxGeometry>
        </mxCell>
      </root>
    </mxGraphModel>
  </diagram>
</mxfile>
